<?xml version="1.0" standalone="no"?>
 <!DOCTYPE svg PUBLIC "-//W3C//DTD SVG 1.1//EN" 
 "http://www.w3.org/Graphics/SVG/1.1/DTD/svg11.dtd"> 
<svg
  xmlns:svg="http://www.w3.org/2000/svg"
  xmlns="http://www.w3.org/2000/svg"
  xmlns:xlink="http://www.w3.org/1999/xlink"
  version="1.1"
  width="29.700220cm" height="21.000720cm" viewBox="0 0 116930 82680">
<title>SVG Picture created as vahvistin.svg date 2022/01/19 09:30:30 </title>
  <desc>Picture generated by Eeschema-SVG </desc>
<g style="fill:#000000; fill-opacity:1;stroke:#000000; stroke-opacity:1;
stroke-linecap:round; stroke-linejoin:round;"
 transform="translate(0 0) scale(1 1)">
</g>
<g style="fill:#000000; fill-opacity:0.0; 
stroke:#000000; stroke-width:0; stroke-opacity:1; 
stroke-linecap:round; stroke-linejoin:round;">
<g >
</g>
<g style="fill:#840000; fill-opacity:0.0; 
stroke:#840000; stroke-width:0; stroke-opacity:1; 
stroke-linecap:round; stroke-linejoin:round;">
</g>
<g style="fill:#840000; fill-opacity:0.0; 
stroke:#840000; stroke-width:60; stroke-opacity:1; 
stroke-linecap:round; stroke-linejoin:round;">
<path style="fill:#840000; fill-opacity:0.0; 
stroke:#840000; stroke-width:60; stroke-opacity:1; 
stroke-linecap:round; stroke-linejoin:round;fill:none"
d="M 37500,26500
37500,27000
38000,27000
37500,27500
37000,27000
37500,27000
" /> 
</g>
<g style="fill:#008484; fill-opacity:0.0; 
stroke:#008484; stroke-width:60; stroke-opacity:1; 
stroke-linecap:round; stroke-linejoin:round;">
<text x="37550" y="28500"
textLength="1580" font-size="660" lengthAdjust="spacingAndGlyphs"
text-anchor="middle" opacity="0">GND</text>
<path d="M37160 28000
L37120 27970
L37050 27970
L36970 28000
L36930 28040
L36900 28090
L36880 28190
L36880 28260
L36900 28350
L36930 28400
L36970 28450
L37050 28470
L37090 28470
L37160 28450
L37190 28420
L37190 28260
L37090 28260
" />
<path d="M37400 28470
L37400 27970
L37690 28470
L37690 27970
" />
<path d="M37930 28470
L37930 27970
L38050 27970
L38120 28000
L38160 28040
L38190 28090
L38210 28190
L38210 28260
L38190 28350
L38160 28400
L38120 28450
L38050 28470
L37930 28470
" />
</g>
</g>
<g style="fill:#008484; fill-opacity:0.0; 
stroke:#008484; stroke-width:0; stroke-opacity:1; 
stroke-linecap:round; stroke-linejoin:round;">
<g >
</g>
<g style="fill:#840000; fill-opacity:0.0; 
stroke:#840000; stroke-width:0; stroke-opacity:1; 
stroke-linecap:round; stroke-linejoin:round;">
</g>
<g style="fill:#840000; fill-opacity:0.0; 
stroke:#840000; stroke-width:60; stroke-opacity:1; 
stroke-linecap:round; stroke-linejoin:round;">
<path d="M40302.6 23151.2 A70 70 0.0 0 0 40250 23050.7" />
<path d="M40300 23150 A100 100 0.0 0 0 40400 23250" />
<path d="M40400 23250 A100 100 0.0 0 0 40500 23150" />
<path d="M40500 22900 A100 100 0.0 0 0 40400 22800" />
<path d="M40400 22800 A100 100 0.0 0 0 40300 22900" />
<path d="M40300 22900 A100 100 0.0 0 0 40400 23000" />
<path d="M40399.9 23000.7 A200 200 0.0 0 0 40640.8 22895.5" />
</g>
<g style="fill:#840000; fill-opacity:0.0; 
stroke:#840000; stroke-width:100; stroke-opacity:1; 
stroke-linecap:round; stroke-linejoin:round;">
<rect x="41100" y="23000" width="800" height="2000" rx="0" />
</g>
<g style="fill:#840000; fill-opacity:0.0; 
stroke:#840000; stroke-width:60; stroke-opacity:1; 
stroke-linecap:round; stroke-linejoin:round;">
<path style="fill:#840000; fill-opacity:0.0; 
stroke:#840000; stroke-width:60; stroke-opacity:1; 
stroke-linecap:round; stroke-linejoin:round;fill:none"
d="M 40500,23150
40500,22900
" /> 
<path style="fill:#840000; fill-opacity:0.0; 
stroke:#840000; stroke-width:60; stroke-opacity:1; 
stroke-linecap:round; stroke-linejoin:round;fill:none"
d="M 40800,23000
40800,23400
42200,24600
42200,25000
" /> 
</g>
<g style="fill:#840000; fill-opacity:1.0; 
stroke:#840000; stroke-width:60; stroke-opacity:1; 
stroke-linecap:round; stroke-linejoin:round;">
<path style="fill:#840000; fill-opacity:1.0; 
stroke:#840000; stroke-width:60; stroke-opacity:1; 
stroke-linecap:round; stroke-linejoin:round;fill-rule:evenodd;"
d="M 40500,25450
40500,24550
40400,24850
40600,24850
40500,24550
40500,24650
" /> 
<path style="fill:#840000; fill-opacity:1.0; 
stroke:#840000; stroke-width:60; stroke-opacity:1; 
stroke-linecap:round; stroke-linejoin:round;fill-rule:evenodd;"
d="M 40800,25450
40800,24550
40700,24850
40900,24850
40800,24550
40800,24650
" /> 
</g>
<g style="fill:#840000; fill-opacity:0.0; 
stroke:#840000; stroke-width:60; stroke-opacity:1; 
stroke-linecap:round; stroke-linejoin:round;">
<path d="M41500 23000
L41500 22500
" />
<path d="M41500 25000
L41500 25500
" />
</g>
<g style="fill:#008484; fill-opacity:0.0; 
stroke:#008484; stroke-width:60; stroke-opacity:1; 
stroke-linecap:round; stroke-linejoin:round;">
<text x="39250" y="23810"
textLength="1440" font-size="660" lengthAdjust="spacingAndGlyphs"
text-anchor="middle" opacity="0">TH1</text>
<path d="M38600 23280
L38890 23280
" />
<path d="M38750 23780
L38750 23280
" />
<path d="M39050 23780
L39050 23280
" />
<path d="M39050 23520
L39340 23520
" />
<path d="M39340 23780
L39340 23280
" />
<path d="M39840 23780
L39550 23780
" />
<path d="M39700 23780
L39700 23280
L39650 23350
L39600 23400
L39550 23420
" />
<text x="38780" y="24720"
textLength="2370" font-size="660" lengthAdjust="spacingAndGlyphs"
text-anchor="middle" opacity="0">PT100</text>
<path d="M37740 24690
L37740 24190
L37930 24190
L37980 24220
L38000 24240
L38030 24290
L38030 24360
L38000 24410
L37980 24430
L37930 24450
L37740 24450
" />
<path d="M38170 24190
L38450 24190
" />
<path d="M38310 24690
L38310 24190
" />
<path d="M38880 24690
L38600 24690
" />
<path d="M38740 24690
L38740 24190
L38690 24260
L38640 24310
L38600 24330
" />
<path d="M39190 24190
L39240 24190
L39290 24220
L39310 24240
L39330 24290
L39360 24380
L39360 24500
L39330 24600
L39310 24640
L39290 24670
L39240 24690
L39190 24690
L39140 24670
L39120 24640
L39100 24600
L39070 24500
L39070 24380
L39100 24290
L39120 24240
L39140 24220
L39190 24190
" />
<path d="M39670 24190
L39720 24190
L39760 24220
L39790 24240
L39810 24290
L39830 24380
L39830 24500
L39810 24600
L39790 24640
L39760 24670
L39720 24690
L39670 24690
L39620 24670
L39600 24640
L39570 24600
L39550 24500
L39550 24380
L39570 24290
L39600 24240
L39620 24220
L39670 24190
" />
</g>
</g>
<g style="fill:#008484; fill-opacity:0.0; 
stroke:#008484; stroke-width:0; stroke-opacity:1; 
stroke-linecap:round; stroke-linejoin:round;">
<g >
</g>
<g style="fill:#840000; fill-opacity:0.0; 
stroke:#840000; stroke-width:0; stroke-opacity:1; 
stroke-linecap:round; stroke-linejoin:round;">
</g>
<g style="fill:#840000; fill-opacity:0.0; 
stroke:#840000; stroke-width:100; stroke-opacity:1; 
stroke-linecap:round; stroke-linejoin:round;">
<rect x="50100" y="18000" width="800" height="2000" rx="0" />
</g>
<g style="fill:#840000; fill-opacity:0.0; 
stroke:#840000; stroke-width:60; stroke-opacity:1; 
stroke-linecap:round; stroke-linejoin:round;">
<path d="M50500 20000
L50500 20500
" />
<path d="M50500 18000
L50500 17500
" />
</g>
<g style="fill:#008484; fill-opacity:0.0; 
stroke:#008484; stroke-width:60; stroke-opacity:1; 
stroke-linecap:round; stroke-linejoin:round;">
<text x="51720" y="18760"
textLength="1040" font-size="660" lengthAdjust="spacingAndGlyphs"
text-anchor="middle" opacity="0">R7</text>
<path d="M51630 18730
L51470 18490
" />
<path d="M51350 18730
L51350 18230
L51540 18230
L51580 18260
L51610 18280
L51630 18330
L51630 18400
L51610 18450
L51580 18470
L51540 18490
L51350 18490
" />
<path d="M51800 18230
L52130 18230
L51920 18730
" />
<text x="51940" y="19670"
textLength="1490" font-size="660" lengthAdjust="spacingAndGlyphs"
text-anchor="middle" opacity="0">680</text>
<path d="M51550 19140
L51460 19140
L51410 19170
L51390 19190
L51340 19260
L51320 19360
L51320 19550
L51340 19590
L51360 19620
L51410 19640
L51510 19640
L51550 19620
L51580 19590
L51600 19550
L51600 19430
L51580 19380
L51550 19360
L51510 19330
L51410 19330
L51360 19360
L51340 19380
L51320 19430
" />
<path d="M51890 19360
L51840 19330
L51820 19310
L51790 19260
L51790 19240
L51820 19190
L51840 19170
L51890 19140
L51980 19140
L52030 19170
L52050 19190
L52080 19240
L52080 19260
L52050 19310
L52030 19330
L51980 19360
L51890 19360
L51840 19380
L51820 19400
L51790 19450
L51790 19550
L51820 19590
L51840 19620
L51890 19640
L51980 19640
L52030 19620
L52050 19590
L52080 19550
L52080 19450
L52050 19400
L52030 19380
L51980 19360
" />
<path d="M52390 19140
L52440 19140
L52480 19170
L52510 19190
L52530 19240
L52550 19330
L52550 19450
L52530 19550
L52510 19590
L52480 19620
L52440 19640
L52390 19640
L52340 19620
L52320 19590
L52290 19550
L52270 19450
L52270 19330
L52290 19240
L52320 19190
L52340 19170
L52390 19140
" />
</g>
</g>
<g style="fill:#008484; fill-opacity:0.0; 
stroke:#008484; stroke-width:0; stroke-opacity:1; 
stroke-linecap:round; stroke-linejoin:round;">
<g >
</g>
<g style="fill:#840000; fill-opacity:0.0; 
stroke:#840000; stroke-width:0; stroke-opacity:1; 
stroke-linecap:round; stroke-linejoin:round;">
</g>
<g style="fill:#840000; fill-opacity:0.0; 
stroke:#840000; stroke-width:100; stroke-opacity:1; 
stroke-linecap:round; stroke-linejoin:round;">
<rect x="46000" y="11600" width="2000" height="800" rx="0" />
</g>
<g style="fill:#840000; fill-opacity:0.0; 
stroke:#840000; stroke-width:60; stroke-opacity:1; 
stroke-linecap:round; stroke-linejoin:round;">
<path d="M46000 12000
L45500 12000
" />
<path d="M48000 12000
L48500 12000
" />
</g>
<g style="fill:#008484; fill-opacity:0.0; 
stroke:#008484; stroke-width:60; stroke-opacity:1; 
stroke-linecap:round; stroke-linejoin:round;">
<text x="47000" y="10150"
textLength="1040" font-size="660" lengthAdjust="spacingAndGlyphs"
text-anchor="middle" opacity="0">R5</text>
<path d="M46910 10120
L46750 9880
" />
<path d="M46630 10120
L46630 9620
L46820 9620
L46860 9650
L46890 9670
L46910 9720
L46910 9790
L46890 9840
L46860 9860
L46820 9880
L46630 9880
" />
<path d="M47360 9620
L47130 9620
L47100 9860
L47130 9840
L47170 9810
L47290 9810
L47340 9840
L47360 9860
L47390 9910
L47390 10030
L47360 10070
L47340 10100
L47290 10120
L47170 10120
L47130 10100
L47100 10070
" />
<text x="47000" y="11060"
textLength="1660" font-size="660" lengthAdjust="spacingAndGlyphs"
text-anchor="middle" opacity="0">5.6k</text>
<path d="M46550 10530
L46320 10530
L46290 10770
L46320 10750
L46360 10720
L46480 10720
L46530 10750
L46550 10770
L46580 10820
L46580 10940
L46550 10980
L46530 11010
L46480 11030
L46360 11030
L46320 11010
L46290 10980
" />
<path d="M46790 10980
L46820 11010
L46790 11030
L46770 11010
L46790 10980
L46790 11030
" />
<path d="M47250 10530
L47150 10530
L47100 10560
L47080 10580
L47030 10650
L47010 10750
L47010 10940
L47030 10980
L47050 11010
L47100 11030
L47200 11030
L47250 11010
L47270 10980
L47290 10940
L47290 10820
L47270 10770
L47250 10750
L47200 10720
L47100 10720
L47050 10750
L47030 10770
L47010 10820
" />
<path d="M47510 11030
L47510 10530
" />
<path d="M47550 10840
L47700 11030
" />
<path d="M47700 10700
L47510 10890
" />
</g>
</g>
<g style="fill:#008484; fill-opacity:0.0; 
stroke:#008484; stroke-width:0; stroke-opacity:1; 
stroke-linecap:round; stroke-linejoin:round;">
<g >
</g>
<g style="fill:#840000; fill-opacity:0.0; 
stroke:#840000; stroke-width:0; stroke-opacity:1; 
stroke-linecap:round; stroke-linejoin:round;">
</g>
<g style="fill:#840000; fill-opacity:0.0; 
stroke:#840000; stroke-width:100; stroke-opacity:1; 
stroke-linecap:round; stroke-linejoin:round;">
<rect x="46000" y="25600" width="2000" height="800" rx="0" />
</g>
<g style="fill:#840000; fill-opacity:0.0; 
stroke:#840000; stroke-width:60; stroke-opacity:1; 
stroke-linecap:round; stroke-linejoin:round;">
<path d="M46000 26000
L45500 26000
" />
<path d="M48000 26000
L48500 26000
" />
</g>
<g style="fill:#008484; fill-opacity:0.0; 
stroke:#008484; stroke-width:60; stroke-opacity:1; 
stroke-linecap:round; stroke-linejoin:round;">
<text x="47000" y="27370"
textLength="1040" font-size="660" lengthAdjust="spacingAndGlyphs"
text-anchor="middle" opacity="0">R6</text>
<path d="M46910 27340
L46750 27100
" />
<path d="M46630 27340
L46630 26840
L46820 26840
L46860 26870
L46890 26890
L46910 26940
L46910 27010
L46890 27060
L46860 27080
L46820 27100
L46630 27100
" />
<path d="M47340 26840
L47250 26840
L47200 26870
L47170 26890
L47130 26960
L47100 27060
L47100 27250
L47130 27290
L47150 27320
L47200 27340
L47290 27340
L47340 27320
L47360 27290
L47390 27250
L47390 27130
L47360 27080
L47340 27060
L47290 27030
L47200 27030
L47150 27060
L47130 27080
L47100 27130
" />
<text x="47000" y="28280"
textLength="1660" font-size="660" lengthAdjust="spacingAndGlyphs"
text-anchor="middle" opacity="0">5.6k</text>
<path d="M46550 27750
L46320 27750
L46290 27990
L46320 27970
L46360 27940
L46480 27940
L46530 27970
L46550 27990
L46580 28040
L46580 28160
L46550 28200
L46530 28230
L46480 28250
L46360 28250
L46320 28230
L46290 28200
" />
<path d="M46790 28200
L46820 28230
L46790 28250
L46770 28230
L46790 28200
L46790 28250
" />
<path d="M47250 27750
L47150 27750
L47100 27780
L47080 27800
L47030 27870
L47010 27970
L47010 28160
L47030 28200
L47050 28230
L47100 28250
L47200 28250
L47250 28230
L47270 28200
L47290 28160
L47290 28040
L47270 27990
L47250 27970
L47200 27940
L47100 27940
L47050 27970
L47030 27990
L47010 28040
" />
<path d="M47510 28250
L47510 27750
" />
<path d="M47550 28060
L47700 28250
" />
<path d="M47700 27920
L47510 28110
" />
</g>
</g>
<g style="fill:#008484; fill-opacity:0.0; 
stroke:#008484; stroke-width:0; stroke-opacity:1; 
stroke-linecap:round; stroke-linejoin:round;">
<g >
</g>
<g style="fill:#840000; fill-opacity:0.0; 
stroke:#840000; stroke-width:0; stroke-opacity:1; 
stroke-linecap:round; stroke-linejoin:round;">
</g>
<g style="fill:#840000; fill-opacity:0.0; 
stroke:#840000; stroke-width:60; stroke-opacity:1; 
stroke-linecap:round; stroke-linejoin:round;">
<path style="fill:#840000; fill-opacity:0.0; 
stroke:#840000; stroke-width:60; stroke-opacity:1; 
stroke-linecap:round; stroke-linejoin:round;fill:none"
d="M 54500,26000
54500,26500
55000,26500
54500,27000
54000,26500
54500,26500
" /> 
</g>
<g style="fill:#008484; fill-opacity:0.0; 
stroke:#008484; stroke-width:60; stroke-opacity:1; 
stroke-linecap:round; stroke-linejoin:round;">
<text x="54550" y="28000"
textLength="1580" font-size="660" lengthAdjust="spacingAndGlyphs"
text-anchor="middle" opacity="0">GND</text>
<path d="M54160 27500
L54120 27470
L54050 27470
L53970 27500
L53930 27540
L53900 27590
L53880 27690
L53880 27760
L53900 27850
L53930 27900
L53970 27950
L54050 27970
L54090 27970
L54160 27950
L54190 27920
L54190 27760
L54090 27760
" />
<path d="M54400 27970
L54400 27470
L54690 27970
L54690 27470
" />
<path d="M54930 27970
L54930 27470
L55050 27470
L55120 27500
L55160 27540
L55190 27590
L55210 27690
L55210 27760
L55190 27850
L55160 27900
L55120 27950
L55050 27970
L54930 27970
" />
</g>
</g>
<g style="fill:#008484; fill-opacity:0.0; 
stroke:#008484; stroke-width:0; stroke-opacity:1; 
stroke-linecap:round; stroke-linejoin:round;">
<g >
</g>
<g style="fill:#840000; fill-opacity:0.0; 
stroke:#840000; stroke-width:0; stroke-opacity:1; 
stroke-linecap:round; stroke-linejoin:round;">
</g>
<g style="fill:#840000; fill-opacity:0.0; 
stroke:#840000; stroke-width:100; stroke-opacity:1; 
stroke-linecap:round; stroke-linejoin:round;">
<rect x="54100" y="23000" width="800" height="2000" rx="0" />
</g>
<g style="fill:#840000; fill-opacity:0.0; 
stroke:#840000; stroke-width:60; stroke-opacity:1; 
stroke-linecap:round; stroke-linejoin:round;">
<path d="M54500 25000
L54500 25500
" />
<path d="M54500 23000
L54500 22500
" />
</g>
<g style="fill:#008484; fill-opacity:0.0; 
stroke:#008484; stroke-width:60; stroke-opacity:1; 
stroke-linecap:round; stroke-linejoin:round;">
<text x="55950" y="23760"
textLength="1510" font-size="660" lengthAdjust="spacingAndGlyphs"
text-anchor="middle" opacity="0">R11</text>
<path d="M55620 23730
L55460 23490
" />
<path d="M55340 23730
L55340 23230
L55530 23230
L55580 23260
L55600 23280
L55620 23330
L55620 23400
L55600 23450
L55580 23470
L55530 23490
L55340 23490
" />
<path d="M56100 23730
L55810 23730
" />
<path d="M55960 23730
L55960 23230
L55910 23300
L55860 23350
L55810 23370
" />
<path d="M56580 23730
L56290 23730
" />
<path d="M56430 23730
L56430 23230
L56390 23300
L56340 23350
L56290 23370
" />
<text x="55910" y="24670"
textLength="1420" font-size="660" lengthAdjust="spacingAndGlyphs"
text-anchor="middle" opacity="0">33k</text>
<path d="M55300 24140
L55610 24140
L55440 24330
L55510 24330
L55560 24360
L55580 24380
L55610 24430
L55610 24550
L55580 24590
L55560 24620
L55510 24640
L55370 24640
L55320 24620
L55300 24590
" />
<path d="M55770 24140
L56080 24140
L55920 24330
L55990 24330
L56040 24360
L56060 24380
L56080 24430
L56080 24550
L56060 24590
L56040 24620
L55990 24640
L55850 24640
L55800 24620
L55770 24590
" />
<path d="M56300 24640
L56300 24140
" />
<path d="M56350 24450
L56490 24640
" />
<path d="M56490 24310
L56300 24500
" />
</g>
</g>
<g style="fill:#008484; fill-opacity:0.0; 
stroke:#008484; stroke-width:0; stroke-opacity:1; 
stroke-linecap:round; stroke-linejoin:round;">
<g >
</g>
<g style="fill:#840000; fill-opacity:0.0; 
stroke:#840000; stroke-width:0; stroke-opacity:1; 
stroke-linecap:round; stroke-linejoin:round;">
</g>
<g style="fill:#840000; fill-opacity:0.0; 
stroke:#840000; stroke-width:100; stroke-opacity:1; 
stroke-linecap:round; stroke-linejoin:round;">
<rect x="57000" y="15600" width="2000" height="800" rx="0" />
</g>
<g style="fill:#840000; fill-opacity:0.0; 
stroke:#840000; stroke-width:60; stroke-opacity:1; 
stroke-linecap:round; stroke-linejoin:round;">
<path d="M57000 16000
L56500 16000
" />
<path d="M59000 16000
L59500 16000
" />
</g>
<g style="fill:#008484; fill-opacity:0.0; 
stroke:#008484; stroke-width:60; stroke-opacity:1; 
stroke-linecap:round; stroke-linejoin:round;">
<text x="57990" y="14150"
textLength="1510" font-size="660" lengthAdjust="spacingAndGlyphs"
text-anchor="middle" opacity="0">R10</text>
<path d="M57660 14120
L57500 13880
" />
<path d="M57380 14120
L57380 13620
L57570 13620
L57620 13650
L57640 13670
L57660 13720
L57660 13790
L57640 13840
L57620 13860
L57570 13880
L57380 13880
" />
<path d="M58140 14120
L57850 14120
" />
<path d="M58000 14120
L58000 13620
L57950 13690
L57900 13740
L57850 13760
" />
<path d="M58450 13620
L58500 13620
L58540 13650
L58570 13670
L58590 13720
L58620 13810
L58620 13930
L58590 14030
L58570 14070
L58540 14100
L58500 14120
L58450 14120
L58400 14100
L58380 14070
L58350 14030
L58330 13930
L58330 13810
L58350 13720
L58380 13670
L58400 13650
L58450 13620
" />
<text x="58000" y="15060"
textLength="1420" font-size="660" lengthAdjust="spacingAndGlyphs"
text-anchor="middle" opacity="0">33k</text>
<path d="M57390 14530
L57700 14530
L57530 14720
L57600 14720
L57650 14750
L57670 14770
L57700 14820
L57700 14940
L57670 14980
L57650 15010
L57600 15030
L57460 15030
L57410 15010
L57390 14980
" />
<path d="M57860 14530
L58170 14530
L58010 14720
L58080 14720
L58130 14750
L58150 14770
L58170 14820
L58170 14940
L58150 14980
L58130 15010
L58080 15030
L57940 15030
L57890 15010
L57860 14980
" />
<path d="M58390 15030
L58390 14530
" />
<path d="M58440 14840
L58580 15030
" />
<path d="M58580 14700
L58390 14890
" />
</g>
</g>
<g style="fill:#008484; fill-opacity:0.0; 
stroke:#008484; stroke-width:0; stroke-opacity:1; 
stroke-linecap:round; stroke-linejoin:round;">
<g >
</g>
<g style="fill:#840000; fill-opacity:0.0; 
stroke:#840000; stroke-width:0; stroke-opacity:1; 
stroke-linecap:round; stroke-linejoin:round;">
</g>
<g style="fill:#840000; fill-opacity:0.0; 
stroke:#840000; stroke-width:100; stroke-opacity:1; 
stroke-linecap:round; stroke-linejoin:round;">
<rect x="51500" y="21600" width="2000" height="800" rx="0" />
</g>
<g style="fill:#840000; fill-opacity:0.0; 
stroke:#840000; stroke-width:60; stroke-opacity:1; 
stroke-linecap:round; stroke-linejoin:round;">
<path d="M51500 22000
L51000 22000
" />
<path d="M53500 22000
L54000 22000
" />
</g>
<g style="fill:#008484; fill-opacity:0.0; 
stroke:#008484; stroke-width:60; stroke-opacity:1; 
stroke-linecap:round; stroke-linejoin:round;">
<text x="52500" y="23370"
textLength="1040" font-size="660" lengthAdjust="spacingAndGlyphs"
text-anchor="middle" opacity="0">R9</text>
<path d="M52410 23340
L52250 23100
" />
<path d="M52130 23340
L52130 22840
L52320 22840
L52360 22870
L52390 22890
L52410 22940
L52410 23010
L52390 23060
L52360 23080
L52320 23100
L52130 23100
" />
<path d="M52650 23340
L52750 23340
L52790 23320
L52820 23290
L52860 23220
L52890 23130
L52890 22940
L52860 22890
L52840 22870
L52790 22840
L52700 22840
L52650 22870
L52630 22890
L52600 22940
L52600 23060
L52630 23100
L52650 23130
L52700 23150
L52790 23150
L52840 23130
L52860 23100
L52890 23060
" />
<text x="52500" y="24280"
textLength="1660" font-size="660" lengthAdjust="spacingAndGlyphs"
text-anchor="middle" opacity="0">8.2k</text>
<path d="M51890 23970
L51840 23940
L51820 23920
L51790 23870
L51790 23850
L51820 23800
L51840 23780
L51890 23750
L51980 23750
L52030 23780
L52050 23800
L52080 23850
L52080 23870
L52050 23920
L52030 23940
L51980 23970
L51890 23970
L51840 23990
L51820 24010
L51790 24060
L51790 24160
L51820 24200
L51840 24230
L51890 24250
L51980 24250
L52030 24230
L52050 24200
L52080 24160
L52080 24060
L52050 24010
L52030 23990
L51980 23970
" />
<path d="M52290 24200
L52320 24230
L52290 24250
L52270 24230
L52290 24200
L52290 24250
" />
<path d="M52510 23800
L52530 23780
L52580 23750
L52700 23750
L52750 23780
L52770 23800
L52790 23850
L52790 23890
L52770 23970
L52480 24250
L52790 24250
" />
<path d="M53010 24250
L53010 23750
" />
<path d="M53050 24060
L53200 24250
" />
<path d="M53200 23920
L53010 24110
" />
</g>
</g>
<g style="fill:#008484; fill-opacity:0.0; 
stroke:#008484; stroke-width:0; stroke-opacity:1; 
stroke-linecap:round; stroke-linejoin:round;">
<g >
</g>
<g style="fill:#840000; fill-opacity:0.0; 
stroke:#840000; stroke-width:0; stroke-opacity:1; 
stroke-linecap:round; stroke-linejoin:round;">
</g>
<g style="fill:#840000; fill-opacity:0.0; 
stroke:#840000; stroke-width:100; stroke-opacity:1; 
stroke-linecap:round; stroke-linejoin:round;">
<rect x="51500" y="15600" width="2000" height="800" rx="0" />
</g>
<g style="fill:#840000; fill-opacity:0.0; 
stroke:#840000; stroke-width:60; stroke-opacity:1; 
stroke-linecap:round; stroke-linejoin:round;">
<path d="M53500 16000
L54000 16000
" />
<path d="M51500 16000
L51000 16000
" />
</g>
<g style="fill:#008484; fill-opacity:0.0; 
stroke:#008484; stroke-width:60; stroke-opacity:1; 
stroke-linecap:round; stroke-linejoin:round;">
<text x="52500" y="14200"
textLength="1040" font-size="660" lengthAdjust="spacingAndGlyphs"
text-anchor="middle" opacity="0">R8</text>
<path d="M52410 14170
L52250 13930
" />
<path d="M52130 14170
L52130 13670
L52320 13670
L52360 13700
L52390 13720
L52410 13770
L52410 13840
L52390 13890
L52360 13910
L52320 13930
L52130 13930
" />
<path d="M52700 13890
L52650 13860
L52630 13840
L52600 13790
L52600 13770
L52630 13720
L52650 13700
L52700 13670
L52790 13670
L52840 13700
L52860 13720
L52890 13770
L52890 13790
L52860 13840
L52840 13860
L52790 13890
L52700 13890
L52650 13910
L52630 13930
L52600 13980
L52600 14080
L52630 14120
L52650 14150
L52700 14170
L52790 14170
L52840 14150
L52860 14120
L52890 14080
L52890 13980
L52860 13930
L52840 13910
L52790 13890
" />
<text x="52500" y="15110"
textLength="1660" font-size="660" lengthAdjust="spacingAndGlyphs"
text-anchor="middle" opacity="0">8.2k</text>
<path d="M51890 14800
L51840 14770
L51820 14750
L51790 14700
L51790 14680
L51820 14630
L51840 14610
L51890 14580
L51980 14580
L52030 14610
L52050 14630
L52080 14680
L52080 14700
L52050 14750
L52030 14770
L51980 14800
L51890 14800
L51840 14820
L51820 14840
L51790 14890
L51790 14990
L51820 15030
L51840 15060
L51890 15080
L51980 15080
L52030 15060
L52050 15030
L52080 14990
L52080 14890
L52050 14840
L52030 14820
L51980 14800
" />
<path d="M52290 15030
L52320 15060
L52290 15080
L52270 15060
L52290 15030
L52290 15080
" />
<path d="M52510 14630
L52530 14610
L52580 14580
L52700 14580
L52750 14610
L52770 14630
L52790 14680
L52790 14720
L52770 14800
L52480 15080
L52790 15080
" />
<path d="M53010 15080
L53010 14580
" />
<path d="M53050 14890
L53200 15080
" />
<path d="M53200 14750
L53010 14940
" />
</g>
</g>
<g style="fill:#008484; fill-opacity:0.0; 
stroke:#008484; stroke-width:0; stroke-opacity:1; 
stroke-linecap:round; stroke-linejoin:round;">
<g >
</g>
<g style="fill:#840000; fill-opacity:0.0; 
stroke:#840000; stroke-width:0; stroke-opacity:1; 
stroke-linecap:round; stroke-linejoin:round;">
</g>
<g style="fill:#FFFFC2; fill-opacity:0.0; 
stroke:#FFFFC2; stroke-width:0; stroke-opacity:1; 
stroke-linecap:round; stroke-linejoin:round;">
</g>
<g style="fill:#FFFFC2; fill-opacity:0.6; 
stroke:#FFFFC2; stroke-width:0; stroke-opacity:1; 
stroke-linecap:round; stroke-linejoin:round;">
<path style="fill:#FFFFC2; fill-opacity:0.6; 
stroke:#FFFFC2; stroke-width:0; stroke-opacity:1; 
stroke-linecap:round; stroke-linejoin:round;fill-rule:evenodd;"
d="M 56000,21000
60000,19000
56000,17000
Z" /> 
</g>
<g style="fill:#840000; fill-opacity:0.6; 
stroke:#840000; stroke-width:0; stroke-opacity:1; 
stroke-linecap:round; stroke-linejoin:round;">
</g>
<g style="fill:#840000; fill-opacity:0.0; 
stroke:#840000; stroke-width:100; stroke-opacity:1; 
stroke-linecap:round; stroke-linejoin:round;">
<path style="fill:#840000; fill-opacity:0.0; 
stroke:#840000; stroke-width:100; stroke-opacity:1; 
stroke-linecap:round; stroke-linejoin:round;fill:none"
d="M 56000,21000
60000,19000
56000,17000
Z" /> 
<path style="fill:#840000; fill-opacity:0.0; 
stroke:#840000; stroke-width:100; stroke-opacity:1; 
stroke-linecap:round; stroke-linejoin:round;fill:none"
d="M 56000,21000
60000,19000
56000,17000
Z" /> 
</g>
<g style="fill:#840000; fill-opacity:0.0; 
stroke:#840000; stroke-width:60; stroke-opacity:1; 
stroke-linecap:round; stroke-linejoin:round;">
<path d="M60000 19000
L61000 19000
" />
<text x="60500" y="18900"
textLength="540" font-size="660" lengthAdjust="spacingAndGlyphs"
text-anchor="middle" opacity="0">1</text>
<path d="M60640 18870
L60350 18870
" />
<path d="M60500 18870
L60500 18370
L60450 18440
L60400 18490
L60350 18510
" />
<path d="M56000 18000
L55000 18000
" />
</g>
<g style="fill:#008484; fill-opacity:0.0; 
stroke:#008484; stroke-width:60; stroke-opacity:1; 
stroke-linecap:round; stroke-linejoin:round;">
<text x="56050" y="18250"
textLength="680" font-size="660" lengthAdjust="spacingAndGlyphs"
text-anchor="start" opacity="0">-</text>
<path d="M56190 18030
L56580 18030
" />
</g>
<g style="fill:#840000; fill-opacity:0.0; 
stroke:#840000; stroke-width:60; stroke-opacity:1; 
stroke-linecap:round; stroke-linejoin:round;">
<text x="55500" y="17900"
textLength="540" font-size="660" lengthAdjust="spacingAndGlyphs"
text-anchor="middle" opacity="0">2</text>
<path d="M55350 17420
L55380 17400
L55420 17370
L55540 17370
L55590 17400
L55610 17420
L55640 17470
L55640 17510
L55610 17590
L55330 17870
L55640 17870
" />
<path d="M56000 20000
L55000 20000
" />
</g>
<g style="fill:#008484; fill-opacity:0.0; 
stroke:#008484; stroke-width:60; stroke-opacity:1; 
stroke-linecap:round; stroke-linejoin:round;">
<text x="56050" y="20250"
textLength="680" font-size="660" lengthAdjust="spacingAndGlyphs"
text-anchor="start" opacity="0">+</text>
<path d="M56190 20030
L56580 20030
" />
<path d="M56380 20220
L56380 19840
" />
</g>
<g style="fill:#840000; fill-opacity:0.0; 
stroke:#840000; stroke-width:60; stroke-opacity:1; 
stroke-linecap:round; stroke-linejoin:round;">
<text x="55500" y="19900"
textLength="540" font-size="660" lengthAdjust="spacingAndGlyphs"
text-anchor="middle" opacity="0">3</text>
<path d="M55330 19370
L55640 19370
L55470 19560
L55540 19560
L55590 19590
L55610 19610
L55640 19660
L55640 19780
L55610 19820
L55590 19850
L55540 19870
L55400 19870
L55350 19850
L55330 19820
" />
</g>
<g style="fill:#008484; fill-opacity:0.0; 
stroke:#008484; stroke-width:60; stroke-opacity:1; 
stroke-linecap:round; stroke-linejoin:round;">
<text x="58000" y="21220"
textLength="1490" font-size="660" lengthAdjust="spacingAndGlyphs"
text-anchor="middle" opacity="0">U3A</text>
<path d="M57400 20690
L57400 21100
L57420 21140
L57450 21170
L57500 21190
L57590 21190
L57640 21170
L57660 21140
L57690 21100
L57690 20690
" />
<path d="M57880 20690
L58190 20690
L58020 20880
L58090 20880
L58140 20910
L58160 20930
L58190 20980
L58190 21100
L58160 21140
L58140 21170
L58090 21190
L57950 21190
L57900 21170
L57880 21140
" />
<path d="M58380 21050
L58610 21050
" />
<path d="M58330 21190
L58500 20690
L58660 21190
" />
<text x="58000" y="22220"
textLength="2460" font-size="660" lengthAdjust="spacingAndGlyphs"
text-anchor="middle" opacity="0">LM324</text>
<path d="M57150 22190
L56910 22190
L56910 21690
" />
<path d="M57320 22190
L57320 21690
L57480 22050
L57650 21690
L57650 22190
" />
<path d="M57840 21690
L58150 21690
L57980 21880
L58050 21880
L58100 21910
L58130 21930
L58150 21980
L58150 22100
L58130 22140
L58100 22170
L58050 22190
L57910 22190
L57860 22170
L57840 22140
" />
<path d="M58340 21740
L58360 21720
L58410 21690
L58530 21690
L58580 21720
L58600 21740
L58630 21790
L58630 21830
L58600 21910
L58320 22190
L58630 22190
" />
<path d="M59050 21860
L59050 22190
" />
<path d="M58940 21670
L58820 22020
L59130 22020
" />
</g>
</g>
<g style="fill:#008484; fill-opacity:0.0; 
stroke:#008484; stroke-width:0; stroke-opacity:1; 
stroke-linecap:round; stroke-linejoin:round;">
<g >
</g>
<g style="fill:#840000; fill-opacity:0.0; 
stroke:#840000; stroke-width:0; stroke-opacity:1; 
stroke-linecap:round; stroke-linejoin:round;">
</g>
<g style="fill:#840000; fill-opacity:0.0; 
stroke:#840000; stroke-width:100; stroke-opacity:1; 
stroke-linecap:round; stroke-linejoin:round;">
<rect x="62500" y="18600" width="2000" height="800" rx="0" />
</g>
<g style="fill:#840000; fill-opacity:0.0; 
stroke:#840000; stroke-width:60; stroke-opacity:1; 
stroke-linecap:round; stroke-linejoin:round;">
<path d="M62500 19000
L62000 19000
" />
<path d="M64500 19000
L65000 19000
" />
</g>
<g style="fill:#008484; fill-opacity:0.0; 
stroke:#008484; stroke-width:60; stroke-opacity:1; 
stroke-linecap:round; stroke-linejoin:round;">
<text x="63490" y="17150"
textLength="1510" font-size="660" lengthAdjust="spacingAndGlyphs"
text-anchor="middle" opacity="0">R12</text>
<path d="M63160 17120
L63000 16880
" />
<path d="M62880 17120
L62880 16620
L63070 16620
L63120 16650
L63140 16670
L63160 16720
L63160 16790
L63140 16840
L63120 16860
L63070 16880
L62880 16880
" />
<path d="M63640 17120
L63350 17120
" />
<path d="M63500 17120
L63500 16620
L63450 16690
L63400 16740
L63350 16760
" />
<path d="M63830 16670
L63850 16650
L63900 16620
L64020 16620
L64070 16650
L64090 16670
L64120 16720
L64120 16760
L64090 16840
L63810 17120
L64120 17120
" />
<text x="63490" y="18060"
textLength="1110" font-size="660" lengthAdjust="spacingAndGlyphs"
text-anchor="middle" opacity="0">1M</text>
<path d="M63340 18030
L63060 18030
" />
<path d="M63200 18030
L63200 17530
L63150 17600
L63100 17650
L63060 17670
" />
<path d="M63560 18030
L63560 17530
L63720 17890
L63890 17530
L63890 18030
" />
</g>
</g>
<g style="fill:#008484; fill-opacity:0.0; 
stroke:#008484; stroke-width:0; stroke-opacity:1; 
stroke-linecap:round; stroke-linejoin:round;">
<g >
</g>
<g style="fill:#840000; fill-opacity:0.0; 
stroke:#840000; stroke-width:0; stroke-opacity:1; 
stroke-linecap:round; stroke-linejoin:round;">
</g>
<g style="fill:#FFFFC2; fill-opacity:0.0; 
stroke:#FFFFC2; stroke-width:0; stroke-opacity:1; 
stroke-linecap:round; stroke-linejoin:round;">
</g>
<g style="fill:#FFFFC2; fill-opacity:0.6; 
stroke:#FFFFC2; stroke-width:0; stroke-opacity:1; 
stroke-linecap:round; stroke-linejoin:round;">
<path style="fill:#FFFFC2; fill-opacity:0.6; 
stroke:#FFFFC2; stroke-width:0; stroke-opacity:1; 
stroke-linecap:round; stroke-linejoin:round;fill-rule:evenodd;"
d="M 45000,21000
49000,23000
45000,25000
Z" /> 
</g>
<g style="fill:#840000; fill-opacity:0.6; 
stroke:#840000; stroke-width:0; stroke-opacity:1; 
stroke-linecap:round; stroke-linejoin:round;">
</g>
<g style="fill:#840000; fill-opacity:0.0; 
stroke:#840000; stroke-width:100; stroke-opacity:1; 
stroke-linecap:round; stroke-linejoin:round;">
<path style="fill:#840000; fill-opacity:0.0; 
stroke:#840000; stroke-width:100; stroke-opacity:1; 
stroke-linecap:round; stroke-linejoin:round;fill:none"
d="M 45000,21000
49000,23000
45000,25000
Z" /> 
<path style="fill:#840000; fill-opacity:0.0; 
stroke:#840000; stroke-width:100; stroke-opacity:1; 
stroke-linecap:round; stroke-linejoin:round;fill:none"
d="M 45000,21000
49000,23000
45000,25000
Z" /> 
</g>
<g style="fill:#840000; fill-opacity:0.0; 
stroke:#840000; stroke-width:60; stroke-opacity:1; 
stroke-linecap:round; stroke-linejoin:round;">
<path d="M49000 23000
L50000 23000
" />
<text x="49500" y="22900"
textLength="540" font-size="660" lengthAdjust="spacingAndGlyphs"
text-anchor="middle" opacity="0">1</text>
<path d="M49640 22870
L49350 22870
" />
<path d="M49500 22870
L49500 22370
L49450 22440
L49400 22490
L49350 22510
" />
<path d="M45000 24000
L44000 24000
" />
</g>
<g style="fill:#008484; fill-opacity:0.0; 
stroke:#008484; stroke-width:60; stroke-opacity:1; 
stroke-linecap:round; stroke-linejoin:round;">
<text x="45050" y="24250"
textLength="680" font-size="660" lengthAdjust="spacingAndGlyphs"
text-anchor="start" opacity="0">-</text>
<path d="M45190 24030
L45580 24030
" />
</g>
<g style="fill:#840000; fill-opacity:0.0; 
stroke:#840000; stroke-width:60; stroke-opacity:1; 
stroke-linecap:round; stroke-linejoin:round;">
<text x="44500" y="23900"
textLength="540" font-size="660" lengthAdjust="spacingAndGlyphs"
text-anchor="middle" opacity="0">2</text>
<path d="M44350 23420
L44380 23400
L44420 23370
L44540 23370
L44590 23400
L44610 23420
L44640 23470
L44640 23510
L44610 23590
L44330 23870
L44640 23870
" />
<path d="M45000 22000
L44000 22000
" />
</g>
<g style="fill:#008484; fill-opacity:0.0; 
stroke:#008484; stroke-width:60; stroke-opacity:1; 
stroke-linecap:round; stroke-linejoin:round;">
<text x="45050" y="22250"
textLength="680" font-size="660" lengthAdjust="spacingAndGlyphs"
text-anchor="start" opacity="0">+</text>
<path d="M45190 22030
L45580 22030
" />
<path d="M45380 22220
L45380 21840
" />
</g>
<g style="fill:#840000; fill-opacity:0.0; 
stroke:#840000; stroke-width:60; stroke-opacity:1; 
stroke-linecap:round; stroke-linejoin:round;">
<text x="44500" y="21900"
textLength="540" font-size="660" lengthAdjust="spacingAndGlyphs"
text-anchor="middle" opacity="0">3</text>
<path d="M44330 21370
L44640 21370
L44470 21560
L44540 21560
L44590 21590
L44610 21610
L44640 21660
L44640 21780
L44610 21820
L44590 21850
L44540 21870
L44400 21870
L44350 21850
L44330 21820
" />
</g>
<g style="fill:#008484; fill-opacity:0.0; 
stroke:#008484; stroke-width:60; stroke-opacity:1; 
stroke-linecap:round; stroke-linejoin:round;">
<text x="47000" y="19600"
textLength="1490" font-size="660" lengthAdjust="spacingAndGlyphs"
text-anchor="middle" opacity="0">U2A</text>
<path d="M46400 19070
L46400 19480
L46420 19520
L46450 19550
L46500 19570
L46590 19570
L46640 19550
L46660 19520
L46690 19480
L46690 19070
" />
<path d="M46900 19120
L46920 19100
L46970 19070
L47090 19070
L47140 19100
L47160 19120
L47190 19170
L47190 19210
L47160 19290
L46880 19570
L47190 19570
" />
<path d="M47380 19430
L47610 19430
" />
<path d="M47330 19570
L47500 19070
L47660 19570
" />
<text x="47000" y="20510"
textLength="2460" font-size="660" lengthAdjust="spacingAndGlyphs"
text-anchor="middle" opacity="0">LM324</text>
<path d="M46150 20480
L45910 20480
L45910 19980
" />
<path d="M46320 20480
L46320 19980
L46480 20340
L46650 19980
L46650 20480
" />
<path d="M46840 19980
L47150 19980
L46980 20170
L47050 20170
L47100 20200
L47130 20220
L47150 20270
L47150 20390
L47130 20430
L47100 20460
L47050 20480
L46910 20480
L46860 20460
L46840 20430
" />
<path d="M47340 20030
L47360 20010
L47410 19980
L47530 19980
L47580 20010
L47600 20030
L47630 20080
L47630 20120
L47600 20200
L47320 20480
L47630 20480
" />
<path d="M48050 20150
L48050 20480
" />
<path d="M47940 19960
L47820 20310
L48130 20310
" />
</g>
</g>
<g style="fill:#008484; fill-opacity:0.0; 
stroke:#008484; stroke-width:0; stroke-opacity:1; 
stroke-linecap:round; stroke-linejoin:round;">
<g >
</g>
<g style="fill:#840000; fill-opacity:0.0; 
stroke:#840000; stroke-width:0; stroke-opacity:1; 
stroke-linecap:round; stroke-linejoin:round;">
</g>
<g style="fill:#FFFFC2; fill-opacity:0.0; 
stroke:#FFFFC2; stroke-width:0; stroke-opacity:1; 
stroke-linecap:round; stroke-linejoin:round;">
</g>
<g style="fill:#FFFFC2; fill-opacity:0.6; 
stroke:#FFFFC2; stroke-width:0; stroke-opacity:1; 
stroke-linecap:round; stroke-linejoin:round;">
<path style="fill:#FFFFC2; fill-opacity:0.6; 
stroke:#FFFFC2; stroke-width:0; stroke-opacity:1; 
stroke-linecap:round; stroke-linejoin:round;fill-rule:evenodd;"
d="M 45000,17000
49000,15000
45000,13000
Z" /> 
</g>
<g style="fill:#840000; fill-opacity:0.6; 
stroke:#840000; stroke-width:0; stroke-opacity:1; 
stroke-linecap:round; stroke-linejoin:round;">
</g>
<g style="fill:#840000; fill-opacity:0.0; 
stroke:#840000; stroke-width:100; stroke-opacity:1; 
stroke-linecap:round; stroke-linejoin:round;">
<path style="fill:#840000; fill-opacity:0.0; 
stroke:#840000; stroke-width:100; stroke-opacity:1; 
stroke-linecap:round; stroke-linejoin:round;fill:none"
d="M 45000,17000
49000,15000
45000,13000
Z" /> 
<path style="fill:#840000; fill-opacity:0.0; 
stroke:#840000; stroke-width:100; stroke-opacity:1; 
stroke-linecap:round; stroke-linejoin:round;fill:none"
d="M 45000,17000
49000,15000
45000,13000
Z" /> 
</g>
<g style="fill:#840000; fill-opacity:0.0; 
stroke:#840000; stroke-width:60; stroke-opacity:1; 
stroke-linecap:round; stroke-linejoin:round;">
<path d="M49000 15000
L50000 15000
" />
<text x="49500" y="14900"
textLength="540" font-size="660" lengthAdjust="spacingAndGlyphs"
text-anchor="middle" opacity="0">1</text>
<path d="M49640 14870
L49350 14870
" />
<path d="M49500 14870
L49500 14370
L49450 14440
L49400 14490
L49350 14510
" />
<path d="M45000 14000
L44000 14000
" />
</g>
<g style="fill:#008484; fill-opacity:0.0; 
stroke:#008484; stroke-width:60; stroke-opacity:1; 
stroke-linecap:round; stroke-linejoin:round;">
<text x="45050" y="14250"
textLength="680" font-size="660" lengthAdjust="spacingAndGlyphs"
text-anchor="start" opacity="0">-</text>
<path d="M45190 14030
L45580 14030
" />
</g>
<g style="fill:#840000; fill-opacity:0.0; 
stroke:#840000; stroke-width:60; stroke-opacity:1; 
stroke-linecap:round; stroke-linejoin:round;">
<text x="44500" y="13900"
textLength="540" font-size="660" lengthAdjust="spacingAndGlyphs"
text-anchor="middle" opacity="0">2</text>
<path d="M44350 13420
L44380 13400
L44420 13370
L44540 13370
L44590 13400
L44610 13420
L44640 13470
L44640 13510
L44610 13590
L44330 13870
L44640 13870
" />
<path d="M45000 16000
L44000 16000
" />
</g>
<g style="fill:#008484; fill-opacity:0.0; 
stroke:#008484; stroke-width:60; stroke-opacity:1; 
stroke-linecap:round; stroke-linejoin:round;">
<text x="45050" y="16250"
textLength="680" font-size="660" lengthAdjust="spacingAndGlyphs"
text-anchor="start" opacity="0">+</text>
<path d="M45190 16030
L45580 16030
" />
<path d="M45380 16220
L45380 15840
" />
</g>
<g style="fill:#840000; fill-opacity:0.0; 
stroke:#840000; stroke-width:60; stroke-opacity:1; 
stroke-linecap:round; stroke-linejoin:round;">
<text x="44500" y="15900"
textLength="540" font-size="660" lengthAdjust="spacingAndGlyphs"
text-anchor="middle" opacity="0">3</text>
<path d="M44330 15370
L44640 15370
L44470 15560
L44540 15560
L44590 15590
L44610 15610
L44640 15660
L44640 15780
L44610 15820
L44590 15850
L44540 15870
L44400 15870
L44350 15850
L44330 15820
" />
</g>
<g style="fill:#008484; fill-opacity:0.0; 
stroke:#008484; stroke-width:60; stroke-opacity:1; 
stroke-linecap:round; stroke-linejoin:round;">
<text x="47000" y="17220"
textLength="1490" font-size="660" lengthAdjust="spacingAndGlyphs"
text-anchor="middle" opacity="0">U1A</text>
<path d="M46400 16690
L46400 17100
L46420 17140
L46450 17170
L46500 17190
L46590 17190
L46640 17170
L46660 17140
L46690 17100
L46690 16690
" />
<path d="M47190 17190
L46900 17190
" />
<path d="M47040 17190
L47040 16690
L47000 16760
L46950 16810
L46900 16830
" />
<path d="M47380 17050
L47610 17050
" />
<path d="M47330 17190
L47500 16690
L47660 17190
" />
<text x="47000" y="18220"
textLength="2460" font-size="660" lengthAdjust="spacingAndGlyphs"
text-anchor="middle" opacity="0">LM324</text>
<path d="M46150 18190
L45910 18190
L45910 17690
" />
<path d="M46320 18190
L46320 17690
L46480 18050
L46650 17690
L46650 18190
" />
<path d="M46840 17690
L47150 17690
L46980 17880
L47050 17880
L47100 17910
L47130 17930
L47150 17980
L47150 18100
L47130 18140
L47100 18170
L47050 18190
L46910 18190
L46860 18170
L46840 18140
" />
<path d="M47340 17740
L47360 17720
L47410 17690
L47530 17690
L47580 17720
L47600 17740
L47630 17790
L47630 17830
L47600 17910
L47320 18190
L47630 18190
" />
<path d="M48050 17860
L48050 18190
" />
<path d="M47940 17670
L47820 18020
L48130 18020
" />
</g>
</g>
<g style="fill:#008484; fill-opacity:0.0; 
stroke:#008484; stroke-width:0; stroke-opacity:1; 
stroke-linecap:round; stroke-linejoin:round;">
<g >
</g>
<g style="fill:#840000; fill-opacity:0.0; 
stroke:#840000; stroke-width:0; stroke-opacity:1; 
stroke-linecap:round; stroke-linejoin:round;">
</g>
<g style="fill:#840000; fill-opacity:0.0; 
stroke:#840000; stroke-width:100; stroke-opacity:1; 
stroke-linecap:round; stroke-linejoin:round;">
<rect x="66500" y="18600" width="2000" height="800" rx="0" />
</g>
<g style="fill:#840000; fill-opacity:0.0; 
stroke:#840000; stroke-width:60; stroke-opacity:1; 
stroke-linecap:round; stroke-linejoin:round;">
<path d="M66500 19000
L66000 19000
" />
<path d="M68500 19000
L69000 19000
" />
</g>
<g style="fill:#008484; fill-opacity:0.0; 
stroke:#008484; stroke-width:60; stroke-opacity:1; 
stroke-linecap:round; stroke-linejoin:round;">
<text x="67490" y="17150"
textLength="1510" font-size="660" lengthAdjust="spacingAndGlyphs"
text-anchor="middle" opacity="0">R13</text>
<path d="M67160 17120
L67000 16880
" />
<path d="M66880 17120
L66880 16620
L67070 16620
L67120 16650
L67140 16670
L67160 16720
L67160 16790
L67140 16840
L67120 16860
L67070 16880
L66880 16880
" />
<path d="M67640 17120
L67350 17120
" />
<path d="M67500 17120
L67500 16620
L67450 16690
L67400 16740
L67350 16760
" />
<path d="M67810 16620
L68120 16620
L67950 16810
L68020 16810
L68070 16840
L68090 16860
L68120 16910
L68120 17030
L68090 17070
L68070 17100
L68020 17120
L67880 17120
L67830 17100
L67810 17070
" />
<text x="67490" y="18060"
textLength="1110" font-size="660" lengthAdjust="spacingAndGlyphs"
text-anchor="middle" opacity="0">1M</text>
<path d="M67340 18030
L67060 18030
" />
<path d="M67200 18030
L67200 17530
L67150 17600
L67100 17650
L67060 17670
" />
<path d="M67560 18030
L67560 17530
L67720 17890
L67890 17530
L67890 18030
" />
</g>
</g>
<g style="fill:#008484; fill-opacity:0.0; 
stroke:#008484; stroke-width:0; stroke-opacity:1; 
stroke-linecap:round; stroke-linejoin:round;">
<g >
</g>
<g style="fill:#840000; fill-opacity:0.0; 
stroke:#840000; stroke-width:0; stroke-opacity:1; 
stroke-linecap:round; stroke-linejoin:round;">
</g>
<g style="fill:#840000; fill-opacity:0.0; 
stroke:#840000; stroke-width:200; stroke-opacity:1; 
stroke-linecap:round; stroke-linejoin:round;">
<path style="fill:#840000; fill-opacity:0.0; 
stroke:#840000; stroke-width:200; stroke-opacity:1; 
stroke-linecap:round; stroke-linejoin:round;fill:none"
d="M 68700,21300
70300,21300
" /> 
<path style="fill:#840000; fill-opacity:0.0; 
stroke:#840000; stroke-width:200; stroke-opacity:1; 
stroke-linecap:round; stroke-linejoin:round;fill:none"
d="M 68700,20700
70300,20700
" /> 
</g>
<g style="fill:#840000; fill-opacity:0.0; 
stroke:#840000; stroke-width:60; stroke-opacity:1; 
stroke-linecap:round; stroke-linejoin:round;">
<path d="M69500 20600
L69500 19500
" />
<path d="M69500 21400
L69500 22500
" />
</g>
<g style="fill:#008484; fill-opacity:0.0; 
stroke:#008484; stroke-width:60; stroke-opacity:1; 
stroke-linecap:round; stroke-linejoin:round;">
<text x="67830" y="20810"
textLength="1040" font-size="660" lengthAdjust="spacingAndGlyphs"
text-anchor="middle" opacity="0">C2</text>
<path d="M67740 20730
L67720 20760
L67650 20780
L67600 20780
L67530 20760
L67480 20710
L67460 20660
L67430 20570
L67430 20500
L67460 20400
L67480 20350
L67530 20310
L67600 20280
L67650 20280
L67720 20310
L67740 20330
" />
<path d="M67930 20330
L67960 20310
L68000 20280
L68120 20280
L68170 20310
L68190 20330
L68220 20380
L68220 20420
L68190 20500
L67910 20780
L68220 20780
" />
<text x="67620" y="21720"
textLength="1460" font-size="660" lengthAdjust="spacingAndGlyphs"
text-anchor="middle" opacity="0">10n</text>
<path d="M67290 21690
L67010 21690
" />
<path d="M67150 21690
L67150 21190
L67100 21260
L67060 21310
L67010 21330
" />
<path d="M67600 21190
L67650 21190
L67700 21220
L67720 21240
L67750 21290
L67770 21380
L67770 21500
L67750 21600
L67720 21640
L67700 21670
L67650 21690
L67600 21690
L67560 21670
L67530 21640
L67510 21600
L67480 21500
L67480 21380
L67510 21290
L67530 21240
L67560 21220
L67600 21190
" />
<path d="M67980 21360
L67980 21690
" />
<path d="M67980 21410
L68010 21380
L68060 21360
L68130 21360
L68170 21380
L68200 21430
L68200 21690
" />
</g>
</g>
<g style="fill:#008484; fill-opacity:0.0; 
stroke:#008484; stroke-width:0; stroke-opacity:1; 
stroke-linecap:round; stroke-linejoin:round;">
<g >
</g>
<g style="fill:#840000; fill-opacity:0.0; 
stroke:#840000; stroke-width:0; stroke-opacity:1; 
stroke-linecap:round; stroke-linejoin:round;">
</g>
<g style="fill:#840000; fill-opacity:0.0; 
stroke:#840000; stroke-width:200; stroke-opacity:1; 
stroke-linecap:round; stroke-linejoin:round;">
<path style="fill:#840000; fill-opacity:0.0; 
stroke:#840000; stroke-width:200; stroke-opacity:1; 
stroke-linecap:round; stroke-linejoin:round;fill:none"
d="M 67800,16300
67800,14700
" /> 
<path style="fill:#840000; fill-opacity:0.0; 
stroke:#840000; stroke-width:200; stroke-opacity:1; 
stroke-linecap:round; stroke-linejoin:round;fill:none"
d="M 67200,16300
67200,14700
" /> 
</g>
<g style="fill:#840000; fill-opacity:0.0; 
stroke:#840000; stroke-width:60; stroke-opacity:1; 
stroke-linecap:round; stroke-linejoin:round;">
<path d="M67100 15500
L66000 15500
" />
<path d="M67900 15500
L69000 15500
" />
</g>
<g style="fill:#008484; fill-opacity:0.0; 
stroke:#008484; stroke-width:60; stroke-opacity:1; 
stroke-linecap:round; stroke-linejoin:round;">
<text x="67500" y="13200"
textLength="1040" font-size="660" lengthAdjust="spacingAndGlyphs"
text-anchor="middle" opacity="0">C1</text>
<path d="M67410 13120
L67390 13150
L67320 13170
L67270 13170
L67200 13150
L67150 13100
L67130 13050
L67100 12960
L67100 12890
L67130 12790
L67150 12740
L67200 12700
L67270 12670
L67320 12670
L67390 12700
L67410 12720
" />
<path d="M67890 13170
L67600 13170
" />
<path d="M67750 13170
L67750 12670
L67700 12740
L67650 12790
L67600 12810
" />
<text x="67500" y="14110"
textLength="1460" font-size="660" lengthAdjust="spacingAndGlyphs"
text-anchor="middle" opacity="0">20n</text>
<path d="M66890 13630
L66910 13610
L66960 13580
L67080 13580
L67130 13610
L67150 13630
L67170 13680
L67170 13720
L67150 13800
L66860 14080
L67170 14080
" />
<path d="M67480 13580
L67530 13580
L67580 13610
L67600 13630
L67630 13680
L67650 13770
L67650 13890
L67630 13990
L67600 14030
L67580 14060
L67530 14080
L67480 14080
L67440 14060
L67410 14030
L67390 13990
L67360 13890
L67360 13770
L67390 13680
L67410 13630
L67440 13610
L67480 13580
" />
<path d="M67860 13750
L67860 14080
" />
<path d="M67860 13800
L67890 13770
L67940 13750
L68010 13750
L68050 13770
L68080 13820
L68080 14080
" />
</g>
</g>
<g style="fill:#008484; fill-opacity:0.0; 
stroke:#008484; stroke-width:0; stroke-opacity:1; 
stroke-linecap:round; stroke-linejoin:round;">
<g >
</g>
<g style="fill:#840000; fill-opacity:0.0; 
stroke:#840000; stroke-width:0; stroke-opacity:1; 
stroke-linecap:round; stroke-linejoin:round;">
</g>
<g style="fill:#FFFFC2; fill-opacity:0.0; 
stroke:#FFFFC2; stroke-width:0; stroke-opacity:1; 
stroke-linecap:round; stroke-linejoin:round;">
</g>
<g style="fill:#FFFFC2; fill-opacity:0.6; 
stroke:#FFFFC2; stroke-width:0; stroke-opacity:1; 
stroke-linecap:round; stroke-linejoin:round;">
<path style="fill:#FFFFC2; fill-opacity:0.6; 
stroke:#FFFFC2; stroke-width:0; stroke-opacity:1; 
stroke-linecap:round; stroke-linejoin:round;fill-rule:evenodd;"
d="M 71000,20000
75000,18000
71000,16000
Z" /> 
</g>
<g style="fill:#840000; fill-opacity:0.6; 
stroke:#840000; stroke-width:0; stroke-opacity:1; 
stroke-linecap:round; stroke-linejoin:round;">
</g>
<g style="fill:#840000; fill-opacity:0.0; 
stroke:#840000; stroke-width:100; stroke-opacity:1; 
stroke-linecap:round; stroke-linejoin:round;">
<path style="fill:#840000; fill-opacity:0.0; 
stroke:#840000; stroke-width:100; stroke-opacity:1; 
stroke-linecap:round; stroke-linejoin:round;fill:none"
d="M 71000,20000
75000,18000
71000,16000
Z" /> 
<path style="fill:#840000; fill-opacity:0.0; 
stroke:#840000; stroke-width:100; stroke-opacity:1; 
stroke-linecap:round; stroke-linejoin:round;fill:none"
d="M 71000,20000
75000,18000
71000,16000
Z" /> 
</g>
<g style="fill:#840000; fill-opacity:0.0; 
stroke:#840000; stroke-width:60; stroke-opacity:1; 
stroke-linecap:round; stroke-linejoin:round;">
<path d="M75000 18000
L76000 18000
" />
<text x="75500" y="17900"
textLength="540" font-size="660" lengthAdjust="spacingAndGlyphs"
text-anchor="middle" opacity="0">1</text>
<path d="M75640 17870
L75350 17870
" />
<path d="M75500 17870
L75500 17370
L75450 17440
L75400 17490
L75350 17510
" />
<path d="M71000 17000
L70000 17000
" />
</g>
<g style="fill:#008484; fill-opacity:0.0; 
stroke:#008484; stroke-width:60; stroke-opacity:1; 
stroke-linecap:round; stroke-linejoin:round;">
<text x="71050" y="17250"
textLength="680" font-size="660" lengthAdjust="spacingAndGlyphs"
text-anchor="start" opacity="0">-</text>
<path d="M71190 17030
L71580 17030
" />
</g>
<g style="fill:#840000; fill-opacity:0.0; 
stroke:#840000; stroke-width:60; stroke-opacity:1; 
stroke-linecap:round; stroke-linejoin:round;">
<text x="70500" y="16900"
textLength="540" font-size="660" lengthAdjust="spacingAndGlyphs"
text-anchor="middle" opacity="0">2</text>
<path d="M70350 16420
L70380 16400
L70420 16370
L70540 16370
L70590 16400
L70610 16420
L70640 16470
L70640 16510
L70610 16590
L70330 16870
L70640 16870
" />
<path d="M71000 19000
L70000 19000
" />
</g>
<g style="fill:#008484; fill-opacity:0.0; 
stroke:#008484; stroke-width:60; stroke-opacity:1; 
stroke-linecap:round; stroke-linejoin:round;">
<text x="71050" y="19250"
textLength="680" font-size="660" lengthAdjust="spacingAndGlyphs"
text-anchor="start" opacity="0">+</text>
<path d="M71190 19030
L71580 19030
" />
<path d="M71380 19220
L71380 18840
" />
</g>
<g style="fill:#840000; fill-opacity:0.0; 
stroke:#840000; stroke-width:60; stroke-opacity:1; 
stroke-linecap:round; stroke-linejoin:round;">
<text x="70500" y="18900"
textLength="540" font-size="660" lengthAdjust="spacingAndGlyphs"
text-anchor="middle" opacity="0">3</text>
<path d="M70330 18370
L70640 18370
L70470 18560
L70540 18560
L70590 18590
L70610 18610
L70640 18660
L70640 18780
L70610 18820
L70590 18850
L70540 18870
L70400 18870
L70350 18850
L70330 18820
" />
</g>
<g style="fill:#008484; fill-opacity:0.0; 
stroke:#008484; stroke-width:60; stroke-opacity:1; 
stroke-linecap:round; stroke-linejoin:round;">
<text x="73000" y="20220"
textLength="1490" font-size="660" lengthAdjust="spacingAndGlyphs"
text-anchor="middle" opacity="0">U4A</text>
<path d="M72400 19690
L72400 20100
L72420 20140
L72450 20170
L72500 20190
L72590 20190
L72640 20170
L72660 20140
L72690 20100
L72690 19690
" />
<path d="M73140 19860
L73140 20190
" />
<path d="M73020 19670
L72900 20020
L73210 20020
" />
<path d="M73380 20050
L73610 20050
" />
<path d="M73330 20190
L73500 19690
L73660 20190
" />
<text x="73000" y="21220"
textLength="2460" font-size="660" lengthAdjust="spacingAndGlyphs"
text-anchor="middle" opacity="0">LM324</text>
<path d="M72150 21190
L71910 21190
L71910 20690
" />
<path d="M72320 21190
L72320 20690
L72480 21050
L72650 20690
L72650 21190
" />
<path d="M72840 20690
L73150 20690
L72980 20880
L73050 20880
L73100 20910
L73130 20930
L73150 20980
L73150 21100
L73130 21140
L73100 21170
L73050 21190
L72910 21190
L72860 21170
L72840 21140
" />
<path d="M73340 20740
L73360 20720
L73410 20690
L73530 20690
L73580 20720
L73600 20740
L73630 20790
L73630 20830
L73600 20910
L73320 21190
L73630 21190
" />
<path d="M74050 20860
L74050 21190
" />
<path d="M73940 20670
L73820 21020
L74130 21020
" />
</g>
</g>
<g style="fill:#008484; fill-opacity:0.0; 
stroke:#008484; stroke-width:0; stroke-opacity:1; 
stroke-linecap:round; stroke-linejoin:round;">
<g >
</g>
<g style="fill:#840000; fill-opacity:0.0; 
stroke:#840000; stroke-width:0; stroke-opacity:1; 
stroke-linecap:round; stroke-linejoin:round;">
</g>
<g style="fill:#840000; fill-opacity:0.0; 
stroke:#840000; stroke-width:60; stroke-opacity:1; 
stroke-linecap:round; stroke-linejoin:round;">
<path style="fill:#840000; fill-opacity:0.0; 
stroke:#840000; stroke-width:60; stroke-opacity:1; 
stroke-linecap:round; stroke-linejoin:round;fill:none"
d="M 69500,23000
69500,23500
70000,23500
69500,24000
69000,23500
69500,23500
" /> 
</g>
<g style="fill:#008484; fill-opacity:0.0; 
stroke:#008484; stroke-width:60; stroke-opacity:1; 
stroke-linecap:round; stroke-linejoin:round;">
<text x="69550" y="25000"
textLength="1580" font-size="660" lengthAdjust="spacingAndGlyphs"
text-anchor="middle" opacity="0">GND</text>
<path d="M69160 24500
L69120 24470
L69050 24470
L68970 24500
L68930 24540
L68900 24590
L68880 24690
L68880 24760
L68900 24850
L68930 24900
L68970 24950
L69050 24970
L69090 24970
L69160 24950
L69190 24920
L69190 24760
L69090 24760
" />
<path d="M69400 24970
L69400 24470
L69690 24970
L69690 24470
" />
<path d="M69930 24970
L69930 24470
L70050 24470
L70120 24500
L70160 24540
L70190 24590
L70210 24690
L70210 24760
L70190 24850
L70160 24900
L70120 24950
L70050 24970
L69930 24970
" />
</g>
</g>
<g style="fill:#008484; fill-opacity:0.0; 
stroke:#008484; stroke-width:0; stroke-opacity:1; 
stroke-linecap:round; stroke-linejoin:round;">
<g >
</g>
<g style="fill:#840000; fill-opacity:0.0; 
stroke:#840000; stroke-width:0; stroke-opacity:1; 
stroke-linecap:round; stroke-linejoin:round;">
</g>
<g style="fill:#840000; fill-opacity:0.0; 
stroke:#840000; stroke-width:60; stroke-opacity:1; 
stroke-linecap:round; stroke-linejoin:round;">
<path style="fill:#840000; fill-opacity:0.0; 
stroke:#840000; stroke-width:60; stroke-opacity:1; 
stroke-linecap:round; stroke-linejoin:round;fill:none"
d="M 37200,15000
37500,14500
" /> 
<path style="fill:#840000; fill-opacity:0.0; 
stroke:#840000; stroke-width:60; stroke-opacity:1; 
stroke-linecap:round; stroke-linejoin:round;fill:none"
d="M 37500,15500
37500,14500
" /> 
<path style="fill:#840000; fill-opacity:0.0; 
stroke:#840000; stroke-width:60; stroke-opacity:1; 
stroke-linecap:round; stroke-linejoin:round;fill:none"
d="M 37500,14500
37800,15000
" /> 
</g>
<g style="fill:#008484; fill-opacity:0.0; 
stroke:#008484; stroke-width:60; stroke-opacity:1; 
stroke-linecap:round; stroke-linejoin:round;">
<text x="37650" y="14040"
textLength="1490" font-size="660" lengthAdjust="spacingAndGlyphs"
text-anchor="middle" opacity="0">VCC</text>
<path d="M36980 13510
L37150 14010
L37310 13510
" />
<path d="M37760 13960
L37740 13990
L37670 14010
L37620 14010
L37550 13990
L37500 13940
L37480 13890
L37450 13800
L37450 13730
L37480 13630
L37500 13580
L37550 13540
L37620 13510
L37670 13510
L37740 13540
L37760 13560
" />
<path d="M38260 13960
L38240 13990
L38170 14010
L38120 14010
L38050 13990
L38000 13940
L37980 13890
L37950 13800
L37950 13730
L37980 13630
L38000 13580
L38050 13540
L38120 13510
L38170 13510
L38240 13540
L38260 13560
" />
</g>
</g>
<g style="fill:#008484; fill-opacity:0.0; 
stroke:#008484; stroke-width:0; stroke-opacity:1; 
stroke-linecap:round; stroke-linejoin:round;">
<g >
</g>
<g style="fill:#840000; fill-opacity:0.0; 
stroke:#840000; stroke-width:0; stroke-opacity:1; 
stroke-linecap:round; stroke-linejoin:round;">
</g>
<g style="fill:#840000; fill-opacity:0.0; 
stroke:#840000; stroke-width:60; stroke-opacity:1; 
stroke-linecap:round; stroke-linejoin:round;">
<path style="fill:#840000; fill-opacity:0.0; 
stroke:#840000; stroke-width:60; stroke-opacity:1; 
stroke-linecap:round; stroke-linejoin:round;fill:none"
d="M 41500,20000
41500,20500
42000,20500
41500,21000
41000,20500
41500,20500
" /> 
</g>
<g style="fill:#008484; fill-opacity:0.0; 
stroke:#008484; stroke-width:60; stroke-opacity:1; 
stroke-linecap:round; stroke-linejoin:round;">
<text x="43170" y="20640"
textLength="1580" font-size="660" lengthAdjust="spacingAndGlyphs"
text-anchor="middle" opacity="0">GND</text>
<path d="M42780 20140
L42740 20110
L42670 20110
L42590 20140
L42550 20180
L42520 20230
L42500 20330
L42500 20400
L42520 20490
L42550 20540
L42590 20590
L42670 20610
L42710 20610
L42780 20590
L42810 20560
L42810 20400
L42710 20400
" />
<path d="M43020 20610
L43020 20110
L43310 20610
L43310 20110
" />
<path d="M43550 20610
L43550 20110
L43670 20110
L43740 20140
L43780 20180
L43810 20230
L43830 20330
L43830 20400
L43810 20490
L43780 20540
L43740 20590
L43670 20610
L43550 20610
" />
</g>
</g>
<g style="fill:#008484; fill-opacity:0.0; 
stroke:#008484; stroke-width:0; stroke-opacity:1; 
stroke-linecap:round; stroke-linejoin:round;">
<g >
</g>
<g style="fill:#840000; fill-opacity:0.0; 
stroke:#840000; stroke-width:0; stroke-opacity:1; 
stroke-linecap:round; stroke-linejoin:round;">
</g>
<g style="fill:#840000; fill-opacity:0.0; 
stroke:#840000; stroke-width:100; stroke-opacity:1; 
stroke-linecap:round; stroke-linejoin:round;">
<rect x="38500" y="15600" width="2000" height="800" rx="0" />
</g>
<g style="fill:#840000; fill-opacity:0.0; 
stroke:#840000; stroke-width:60; stroke-opacity:1; 
stroke-linecap:round; stroke-linejoin:round;">
<path d="M40500 16000
L41000 16000
" />
<path d="M38500 16000
L38000 16000
" />
</g>
<g style="fill:#008484; fill-opacity:0.0; 
stroke:#008484; stroke-width:60; stroke-opacity:1; 
stroke-linecap:round; stroke-linejoin:round;">
<text x="39500" y="14200"
textLength="1040" font-size="660" lengthAdjust="spacingAndGlyphs"
text-anchor="middle" opacity="0">R3</text>
<path d="M39410 14170
L39250 13930
" />
<path d="M39130 14170
L39130 13670
L39320 13670
L39360 13700
L39390 13720
L39410 13770
L39410 13840
L39390 13890
L39360 13910
L39320 13930
L39130 13930
" />
<path d="M39580 13670
L39890 13670
L39720 13860
L39790 13860
L39840 13890
L39860 13910
L39890 13960
L39890 14080
L39860 14120
L39840 14150
L39790 14170
L39650 14170
L39600 14150
L39580 14120
" />
<text x="39500" y="15110"
textLength="1890" font-size="660" lengthAdjust="spacingAndGlyphs"
text-anchor="middle" opacity="0">390k</text>
<path d="M38650 14580
L38960 14580
L38790 14770
L38860 14770
L38910 14800
L38940 14820
L38960 14870
L38960 14990
L38940 15030
L38910 15060
L38860 15080
L38720 15080
L38670 15060
L38650 15030
" />
<path d="M39200 15080
L39290 15080
L39340 15060
L39360 15030
L39410 14960
L39440 14870
L39440 14680
L39410 14630
L39390 14610
L39340 14580
L39250 14580
L39200 14610
L39170 14630
L39150 14680
L39150 14800
L39170 14840
L39200 14870
L39250 14890
L39340 14890
L39390 14870
L39410 14840
L39440 14800
" />
<path d="M39750 14580
L39790 14580
L39840 14610
L39860 14630
L39890 14680
L39910 14770
L39910 14890
L39890 14990
L39860 15030
L39840 15060
L39790 15080
L39750 15080
L39700 15060
L39670 15030
L39650 14990
L39630 14890
L39630 14770
L39650 14680
L39670 14630
L39700 14610
L39750 14580
" />
<path d="M40130 15080
L40130 14580
" />
<path d="M40170 14890
L40320 15080
" />
<path d="M40320 14750
L40130 14940
" />
</g>
</g>
<g style="fill:#008484; fill-opacity:0.0; 
stroke:#008484; stroke-width:0; stroke-opacity:1; 
stroke-linecap:round; stroke-linejoin:round;">
<g >
</g>
<g style="fill:#840000; fill-opacity:0.0; 
stroke:#840000; stroke-width:0; stroke-opacity:1; 
stroke-linecap:round; stroke-linejoin:round;">
</g>
<g style="fill:#840000; fill-opacity:0.0; 
stroke:#840000; stroke-width:100; stroke-opacity:1; 
stroke-linecap:round; stroke-linejoin:round;">
<rect x="41100" y="17000" width="800" height="2000" rx="0" />
</g>
<g style="fill:#840000; fill-opacity:0.0; 
stroke:#840000; stroke-width:60; stroke-opacity:1; 
stroke-linecap:round; stroke-linejoin:round;">
<path d="M41500 17000
L41500 16500
" />
<path d="M41500 19000
L41500 19500
" />
</g>
<g style="fill:#008484; fill-opacity:0.0; 
stroke:#008484; stroke-width:60; stroke-opacity:1; 
stroke-linecap:round; stroke-linejoin:round;">
<text x="42720" y="17810"
textLength="1040" font-size="660" lengthAdjust="spacingAndGlyphs"
text-anchor="middle" opacity="0">R4</text>
<path d="M42630 17780
L42470 17540
" />
<path d="M42350 17780
L42350 17280
L42540 17280
L42580 17310
L42610 17330
L42630 17380
L42630 17450
L42610 17500
L42580 17520
L42540 17540
L42350 17540
" />
<path d="M43060 17450
L43060 17780
" />
<path d="M42940 17260
L42820 17610
L43130 17610
" />
<text x="43140" y="18720"
textLength="1890" font-size="660" lengthAdjust="spacingAndGlyphs"
text-anchor="middle" opacity="0">150k</text>
<path d="M42600 18690
L42310 18690
" />
<path d="M42460 18690
L42460 18190
L42410 18260
L42360 18310
L42310 18330
" />
<path d="M43050 18190
L42810 18190
L42790 18430
L42810 18410
L42860 18380
L42980 18380
L43030 18410
L43050 18430
L43080 18480
L43080 18600
L43050 18640
L43030 18670
L42980 18690
L42860 18690
L42810 18670
L42790 18640
" />
<path d="M43390 18190
L43430 18190
L43480 18220
L43500 18240
L43530 18290
L43550 18380
L43550 18500
L43530 18600
L43500 18640
L43480 18670
L43430 18690
L43390 18690
L43340 18670
L43310 18640
L43290 18600
L43270 18500
L43270 18380
L43290 18290
L43310 18240
L43340 18220
L43390 18190
" />
<path d="M43770 18690
L43770 18190
" />
<path d="M43810 18500
L43960 18690
" />
<path d="M43960 18360
L43770 18550
" />
</g>
</g>
<g style="fill:#008484; fill-opacity:0.0; 
stroke:#008484; stroke-width:0; stroke-opacity:1; 
stroke-linecap:round; stroke-linejoin:round;">
<g >
</g>
<g style="fill:#840000; fill-opacity:0.0; 
stroke:#840000; stroke-width:0; stroke-opacity:1; 
stroke-linecap:round; stroke-linejoin:round;">
</g>
<g style="fill:#840000; fill-opacity:0.0; 
stroke:#840000; stroke-width:100; stroke-opacity:1; 
stroke-linecap:round; stroke-linejoin:round;">
<rect x="38500" y="25600" width="2000" height="800" rx="0" />
</g>
<g style="fill:#840000; fill-opacity:0.0; 
stroke:#840000; stroke-width:60; stroke-opacity:1; 
stroke-linecap:round; stroke-linejoin:round;">
<path d="M38500 26000
L38000 26000
" />
<path d="M40500 26000
L41000 26000
" />
</g>
<g style="fill:#008484; fill-opacity:0.0; 
stroke:#008484; stroke-width:60; stroke-opacity:1; 
stroke-linecap:round; stroke-linejoin:round;">
<text x="39500" y="27370"
textLength="1040" font-size="660" lengthAdjust="spacingAndGlyphs"
text-anchor="middle" opacity="0">R2</text>
<path d="M39410 27340
L39250 27100
" />
<path d="M39130 27340
L39130 26840
L39320 26840
L39360 26870
L39390 26890
L39410 26940
L39410 27010
L39390 27060
L39360 27080
L39320 27100
L39130 27100
" />
<path d="M39600 26890
L39630 26870
L39670 26840
L39790 26840
L39840 26870
L39860 26890
L39890 26940
L39890 26980
L39860 27060
L39580 27340
L39890 27340
" />
<text x="39500" y="28280"
textLength="1660" font-size="660" lengthAdjust="spacingAndGlyphs"
text-anchor="middle" opacity="0">1.2k</text>
<path d="M39080 28250
L38790 28250
" />
<path d="M38940 28250
L38940 27750
L38890 27820
L38840 27870
L38790 27890
" />
<path d="M39290 28200
L39320 28230
L39290 28250
L39270 28230
L39290 28200
L39290 28250
" />
<path d="M39510 27800
L39530 27780
L39580 27750
L39700 27750
L39750 27780
L39770 27800
L39790 27850
L39790 27890
L39770 27970
L39480 28250
L39790 28250
" />
<path d="M40010 28250
L40010 27750
" />
<path d="M40050 28060
L40200 28250
" />
<path d="M40200 27920
L40010 28110
" />
</g>
</g>
<g style="fill:#008484; fill-opacity:0.0; 
stroke:#008484; stroke-width:0; stroke-opacity:1; 
stroke-linecap:round; stroke-linejoin:round;">
<g >
</g>
<g style="fill:#840000; fill-opacity:0.0; 
stroke:#840000; stroke-width:0; stroke-opacity:1; 
stroke-linecap:round; stroke-linejoin:round;">
</g>
<g style="fill:#840000; fill-opacity:0.0; 
stroke:#840000; stroke-width:100; stroke-opacity:1; 
stroke-linecap:round; stroke-linejoin:round;">
<rect x="38500" y="21600" width="2000" height="800" rx="0" />
</g>
<g style="fill:#840000; fill-opacity:0.0; 
stroke:#840000; stroke-width:60; stroke-opacity:1; 
stroke-linecap:round; stroke-linejoin:round;">
<path d="M40500 22000
L41000 22000
" />
<path d="M38500 22000
L38000 22000
" />
</g>
<g style="fill:#008484; fill-opacity:0.0; 
stroke:#008484; stroke-width:60; stroke-opacity:1; 
stroke-linecap:round; stroke-linejoin:round;">
<text x="39500" y="20200"
textLength="1040" font-size="660" lengthAdjust="spacingAndGlyphs"
text-anchor="middle" opacity="0">R1</text>
<path d="M39410 20170
L39250 19930
" />
<path d="M39130 20170
L39130 19670
L39320 19670
L39360 19700
L39390 19720
L39410 19770
L39410 19840
L39390 19890
L39360 19910
L39320 19930
L39130 19930
" />
<path d="M39890 20170
L39600 20170
" />
<path d="M39750 20170
L39750 19670
L39700 19740
L39650 19790
L39600 19810
" />
<text x="39500" y="21110"
textLength="1660" font-size="660" lengthAdjust="spacingAndGlyphs"
text-anchor="middle" opacity="0">3.3k</text>
<path d="M38770 20580
L39080 20580
L38910 20770
L38980 20770
L39030 20800
L39050 20820
L39080 20870
L39080 20990
L39050 21030
L39030 21060
L38980 21080
L38840 21080
L38790 21060
L38770 21030
" />
<path d="M39290 21030
L39320 21060
L39290 21080
L39270 21060
L39290 21030
L39290 21080
" />
<path d="M39480 20580
L39790 20580
L39630 20770
L39700 20770
L39750 20800
L39770 20820
L39790 20870
L39790 20990
L39770 21030
L39750 21060
L39700 21080
L39550 21080
L39510 21060
L39480 21030
" />
<path d="M40010 21080
L40010 20580
" />
<path d="M40050 20890
L40200 21080
" />
<path d="M40200 20750
L40010 20940
" />
</g>
</g>
<g style="fill:#008484; fill-opacity:0.0; 
stroke:#008484; stroke-width:60; stroke-opacity:1; 
stroke-linecap:round; stroke-linejoin:round;">
</g>
<g style="fill:#0000C2; fill-opacity:0.0; 
stroke:#0000C2; stroke-width:60; stroke-opacity:1; 
stroke-linecap:round; stroke-linejoin:round;">
</g>
<g style="fill:#0000C2; fill-opacity:0.0; 
stroke:#0000C2; stroke-width:60; stroke-opacity:1; 
stroke-linecap:round; stroke-linejoin:round;stroke-dasharray:150,150;">
<path d="M36500 13000
L43000 13000
" />
</g>
<g style="fill:#0000C2; fill-opacity:0.0; 
stroke:#0000C2; stroke-width:60; stroke-opacity:1; 
stroke-linecap:round; stroke-linejoin:round;">
</g>
<g style="fill:#0000C2; fill-opacity:0.0; 
stroke:#0000C2; stroke-width:60; stroke-opacity:1; 
stroke-linecap:round; stroke-linejoin:round;stroke-dasharray:150,150;">
<path d="M62000 9000
L62000 29000
" />
</g>
<g style="fill:#0000C2; fill-opacity:0.0; 
stroke:#0000C2; stroke-width:60; stroke-opacity:1; 
stroke-linecap:round; stroke-linejoin:round;">
</g>
<g style="fill:#0000C2; fill-opacity:0.0; 
stroke:#0000C2; stroke-width:60; stroke-opacity:1; 
stroke-linecap:round; stroke-linejoin:round;stroke-dasharray:150,150;">
<path d="M36500 29000
L62000 29000
" />
</g>
<g style="fill:#0000C2; fill-opacity:0.0; 
stroke:#0000C2; stroke-width:60; stroke-opacity:1; 
stroke-linecap:round; stroke-linejoin:round;">
</g>
<g style="fill:#0000C2; fill-opacity:0.0; 
stroke:#0000C2; stroke-width:60; stroke-opacity:1; 
stroke-linecap:round; stroke-linejoin:round;stroke-dasharray:150,150;">
<path d="M43000 9000
L43000 29000
" />
</g>
<g style="fill:#0000C2; fill-opacity:0.0; 
stroke:#0000C2; stroke-width:60; stroke-opacity:1; 
stroke-linecap:round; stroke-linejoin:round;">
</g>
<g style="fill:#0000C2; fill-opacity:0.0; 
stroke:#0000C2; stroke-width:60; stroke-opacity:1; 
stroke-linecap:round; stroke-linejoin:round;stroke-dasharray:150,150;">
<path d="M77000 12000
L62000 12000
" />
</g>
<g style="fill:#0000C2; fill-opacity:0.0; 
stroke:#0000C2; stroke-width:60; stroke-opacity:1; 
stroke-linecap:round; stroke-linejoin:round;">
</g>
<g style="fill:#0000C2; fill-opacity:0.0; 
stroke:#0000C2; stroke-width:60; stroke-opacity:1; 
stroke-linecap:round; stroke-linejoin:round;stroke-dasharray:150,150;">
<path d="M77000 25500
L77000 12000
" />
</g>
<g style="fill:#0000C2; fill-opacity:0.0; 
stroke:#0000C2; stroke-width:60; stroke-opacity:1; 
stroke-linecap:round; stroke-linejoin:round;">
</g>
<g style="fill:#0000C2; fill-opacity:0.0; 
stroke:#0000C2; stroke-width:60; stroke-opacity:1; 
stroke-linecap:round; stroke-linejoin:round;stroke-dasharray:150,150;">
<path d="M62000 25500
L77000 25500
" />
</g>
<g style="fill:#0000C2; fill-opacity:0.0; 
stroke:#0000C2; stroke-width:60; stroke-opacity:1; 
stroke-linecap:round; stroke-linejoin:round;">
</g>
<g style="fill:#0000C2; fill-opacity:0.0; 
stroke:#0000C2; stroke-width:60; stroke-opacity:1; 
stroke-linecap:round; stroke-linejoin:round;stroke-dasharray:150,150;">
<path d="M43000 9000
L62000 9000
" />
</g>
<g style="fill:#0000C2; fill-opacity:0.0; 
stroke:#0000C2; stroke-width:60; stroke-opacity:1; 
stroke-linecap:round; stroke-linejoin:round;">
</g>
<g style="fill:#0000C2; fill-opacity:0.0; 
stroke:#0000C2; stroke-width:60; stroke-opacity:1; 
stroke-linecap:round; stroke-linejoin:round;stroke-dasharray:150,150;">
<path d="M36500 29000
L36500 13000
" />
</g>
<g style="fill:#0000C2; fill-opacity:0.0; 
stroke:#0000C2; stroke-width:60; stroke-opacity:1; 
stroke-linecap:round; stroke-linejoin:round;">
</g>
<g style="fill:#008400; fill-opacity:0.0; 
stroke:#008400; stroke-width:60; stroke-opacity:1; 
stroke-linecap:round; stroke-linejoin:round;">
<path d="M50500 22000
L50500 20500
" />
<path d="M54500 18000
L55000 18000
" />
<path d="M69500 19000
L70000 19000
" />
<path d="M50500 22000
L51000 22000
" />
<path d="M50500 16000
L50500 15000
" />
<path d="M69500 19500
L69500 19000
" />
<path d="M50500 16000
L51000 16000
" />
<path d="M37500 16000
L37500 22000
" />
<path d="M54000 16000
L54500 16000
" />
<path d="M41500 26000
L41500 25500
" />
<path d="M41500 22000
L44000 22000
" />
<path d="M69000 19000
L69500 19000
" />
<path d="M41500 16000
L44000 16000
" />
<path d="M37500 16000
L38000 16000
" />
<path d="M56500 16000
L54500 16000
" />
<path d="M69500 15500
L69500 17000
" />
<path d="M37500 22000
L38000 22000
" />
<path d="M41000 26000
L41500 26000
" />
<path d="M37500 26000
L38000 26000
" />
<path d="M37500 26500
L37500 26000
" />
<path d="M69500 22500
L69500 23000
" />
<path d="M76000 18000
L76500 18000
" />
<path d="M65000 19000
L65500 19000
" />
<path d="M65500 19000
L66000 19000
" />
<path d="M65500 15500
L65500 19000
" />
<path d="M76500 18000
L76500 15500
" />
<path d="M69000 15500
L69500 15500
" />
<path d="M66000 15500
L65500 15500
" />
<path d="M76500 18000
L77500 18000
" />
<path d="M76500 15500
L69500 15500
" />
<path d="M69500 17000
L70000 17000
" />
<path d="M61500 19000
L61000 19000
" />
<path d="M41000 22000
L41500 22000
" />
<path d="M41500 22000
L41500 22500
" />
<path d="M50500 23000
L50000 23000
" />
<path d="M41500 16500
L41500 16000
" />
<path d="M41500 16000
L41000 16000
" />
<path d="M44000 24000
L43500 24000
" />
<path d="M45500 12000
L43500 12000
" />
<path d="M48500 12000
L50500 12000
" />
<path d="M50500 15000
L50000 15000
" />
<path d="M45500 26000
L43500 26000
" />
<path d="M48500 26000
L50500 26000
" />
<path d="M50500 23000
L50500 26000
" />
<path d="M43500 24000
L43500 26000
" />
<path d="M43500 12000
L43500 14000
" />
<path d="M50500 23000
L50500 22000
" />
<path d="M59500 16000
L61500 16000
" />
<path d="M54500 20000
L55000 20000
" />
<path d="M44000 14000
L43500 14000
" />
<path d="M54500 25500
L54500 26000
" />
<path d="M61500 19000
L62000 19000
" />
<path d="M37500 15500
L37500 16000
" />
<path d="M54500 16000
L54500 18000
" />
<path d="M61500 16000
L61500 19000
" />
<path d="M54500 20000
L54500 22000
" />
<path d="M54000 22000
L54500 22000
" />
<path d="M41500 19500
L41500 20000
" />
<path d="M54500 22000
L54500 22500
" />
<path d="M50500 17500
L50500 16000
" />
<path d="M50500 12000
L50500 15000
" />
</g>
<g style="fill:#840000; fill-opacity:0.0; 
stroke:#840000; stroke-width:60; stroke-opacity:1; 
stroke-linecap:round; stroke-linejoin:round;">
<text x="77810" y="18250"
textLength="6370" font-size="660" lengthAdjust="spacingAndGlyphs"
text-anchor="start" opacity="0">VAHVISTIN_LHT</text>
<path d="M77880 17720
L78050 18220
L78220 17720
" />
<path d="M78360 18080
L78600 18080
" />
<path d="M78310 18220
L78480 17720
L78640 18220
" />
<path d="M78810 18220
L78810 17720
" />
<path d="M78810 17960
L79100 17960
" />
<path d="M79100 18220
L79100 17720
" />
<path d="M79260 17720
L79430 18220
L79600 17720
" />
<path d="M79760 18220
L79760 17720
" />
<path d="M79980 18200
L80050 18220
L80170 18220
L80220 18200
L80240 18170
L80260 18130
L80260 18080
L80240 18030
L80220 18010
L80170 17980
L80070 17960
L80030 17940
L80000 17910
L79980 17860
L79980 17820
L80000 17770
L80030 17750
L80070 17720
L80190 17720
L80260 17750
" />
<path d="M80410 17720
L80690 17720
" />
<path d="M80550 18220
L80550 17720
" />
<path d="M80860 18220
L80860 17720
" />
<path d="M81100 18220
L81100 17720
L81380 18220
L81380 17720
" />
<path d="M81500 18270
L81880 18270
" />
<path d="M82240 18220
L82000 18220
L82000 17720
" />
<path d="M82380 18080
L82620 18080
" />
<path d="M82340 18220
L82500 17720
L82670 18220
" />
<path d="M82410 17550
L82430 17580
L82410 17600
L82380 17580
L82410 17550
L82410 17600
" />
<path d="M82600 17550
L82620 17580
L82600 17600
L82570 17580
L82600 17550
L82600 17600
" />
<path d="M82840 18220
L82840 17720
" />
<path d="M82840 17960
L83120 17960
" />
<path d="M83120 18220
L83120 17720
" />
<path d="M83290 17720
L83570 17720
" />
<path d="M83430 18220
L83430 17720
" />
<path d="M83840 17720
L83930 17720
L83980 17750
L84030 17790
L84050 17890
L84050 18050
L84030 18150
L83980 18200
L83930 18220
L83840 18220
L83790 18200
L83740 18150
L83720 18050
L83720 17890
L83740 17790
L83790 17750
L83840 17720
" />
<path d="M83790 17550
L83810 17580
L83790 17600
L83760 17580
L83790 17550
L83790 17600
" />
<path d="M83980 17550
L84000 17580
L83980 17600
L83950 17580
L83980 17550
L83980 17600
" />
</g>
<g style="fill:#840000; fill-opacity:0.0; 
stroke:#840000; stroke-width:100; stroke-opacity:1; 
stroke-linecap:round; stroke-linejoin:round;">
<path style="fill:#840000; fill-opacity:0.0; 
stroke:#840000; stroke-width:100; stroke-opacity:1; 
stroke-linecap:round; stroke-linejoin:round;fill:none"
d="M 77500,18000
77750,18440
84290,18440
84290,18000
84290,17560
77750,17560
Z" /> 
</g>
<g style="fill:#840000; fill-opacity:0.0; 
stroke:#840000; stroke-width:60; stroke-opacity:1; 
stroke-linecap:round; stroke-linejoin:round;">
</g>
<g style="fill:#0000C2; fill-opacity:0.0; 
stroke:#0000C2; stroke-width:60; stroke-opacity:1; 
stroke-linecap:round; stroke-linejoin:round;">
<text x="36500" y="29900"
textLength="6460" font-size="660" lengthAdjust="spacingAndGlyphs"
text-anchor="start" opacity="0">Wheastonen silta</text>
<path d="M36600 29370
L36720 29870
L36810 29510
L36910 29870
L37030 29370
" />
<path d="M37220 29870
L37220 29370
" />
<path d="M37430 29870
L37430 29610
L37410 29560
L37360 29540
L37290 29540
L37240 29560
L37220 29590
" />
<path d="M37860 29850
L37810 29870
L37720 29870
L37670 29850
L37640 29800
L37640 29610
L37670 29560
L37720 29540
L37810 29540
L37860 29560
L37880 29610
L37880 29660
L37640 29700
" />
<path d="M38310 29870
L38310 29610
L38290 29560
L38240 29540
L38140 29540
L38100 29560
" />
<path d="M38310 29850
L38260 29870
L38140 29870
L38100 29850
L38070 29800
L38070 29750
L38100 29700
L38140 29680
L38260 29680
L38310 29660
" />
<path d="M38530 29850
L38570 29870
L38670 29870
L38720 29850
L38740 29800
L38740 29780
L38720 29730
L38670 29700
L38600 29700
L38550 29680
L38530 29630
L38530 29610
L38550 29560
L38600 29540
L38670 29540
L38720 29560
" />
<path d="M38880 29540
L39070 29540
" />
<path d="M38950 29370
L38950 29800
L38980 29850
L39030 29870
L39070 29870
" />
<path d="M39310 29870
L39260 29850
L39240 29820
L39220 29780
L39220 29630
L39240 29590
L39260 29560
L39310 29540
L39380 29540
L39430 29560
L39450 29590
L39480 29630
L39480 29780
L39450 29820
L39430 29850
L39380 29870
L39310 29870
" />
<path d="M39690 29540
L39690 29870
" />
<path d="M39690 29590
L39720 29560
L39760 29540
L39830 29540
L39880 29560
L39910 29610
L39910 29870
" />
<path d="M40330 29850
L40290 29870
L40190 29870
L40140 29850
L40120 29800
L40120 29610
L40140 29560
L40190 29540
L40290 29540
L40330 29560
L40360 29610
L40360 29660
L40120 29700
" />
<path d="M40570 29540
L40570 29870
" />
<path d="M40570 29590
L40600 29560
L40640 29540
L40720 29540
L40760 29560
L40790 29610
L40790 29870
" />
<path d="M41380 29850
L41430 29870
L41530 29870
L41570 29850
L41600 29800
L41600 29780
L41570 29730
L41530 29700
L41450 29700
L41410 29680
L41380 29630
L41380 29610
L41410 29560
L41450 29540
L41530 29540
L41570 29560
" />
<path d="M41810 29870
L41810 29540
" />
<path d="M41810 29370
L41790 29400
L41810 29420
L41830 29400
L41810 29370
L41810 29420
" />
<path d="M42120 29870
L42070 29850
L42050 29800
L42050 29370
" />
<path d="M42240 29540
L42430 29540
" />
<path d="M42310 29370
L42310 29800
L42330 29850
L42380 29870
L42430 29870
" />
<path d="M42810 29870
L42810 29610
L42790 29560
L42740 29540
L42640 29540
L42600 29560
" />
<path d="M42810 29850
L42760 29870
L42640 29870
L42600 29850
L42570 29800
L42570 29750
L42600 29700
L42640 29680
L42760 29680
L42810 29660
" />
<text x="47500" y="29900"
textLength="8990" font-size="660" lengthAdjust="spacingAndGlyphs"
text-anchor="start" opacity="0">Instrumentointivahvistin</text>
<path d="M47640 29870
L47640 29370
" />
<path d="M47880 29540
L47880 29870
" />
<path d="M47880 29590
L47910 29560
L47950 29540
L48030 29540
L48070 29560
L48100 29610
L48100 29870
" />
<path d="M48310 29850
L48360 29870
L48450 29870
L48500 29850
L48530 29800
L48530 29780
L48500 29730
L48450 29700
L48380 29700
L48330 29680
L48310 29630
L48310 29610
L48330 29560
L48380 29540
L48450 29540
L48500 29560
" />
<path d="M48670 29540
L48860 29540
" />
<path d="M48740 29370
L48740 29800
L48760 29850
L48810 29870
L48860 29870
" />
<path d="M49030 29870
L49030 29540
" />
<path d="M49030 29630
L49050 29590
L49070 29560
L49120 29540
L49170 29540
" />
<path d="M49550 29540
L49550 29870
" />
<path d="M49330 29540
L49330 29800
L49360 29850
L49410 29870
L49480 29870
L49530 29850
L49550 29820
" />
<path d="M49790 29870
L49790 29540
" />
<path d="M49790 29590
L49810 29560
L49860 29540
L49930 29540
L49980 29560
L50000 29610
L50000 29870
" />
<path d="M50000 29610
L50030 29560
L50070 29540
L50140 29540
L50190 29560
L50220 29610
L50220 29870
" />
<path d="M50640 29850
L50600 29870
L50500 29870
L50450 29850
L50430 29800
L50430 29610
L50450 29560
L50500 29540
L50600 29540
L50640 29560
L50670 29610
L50670 29660
L50430 29700
" />
<path d="M50880 29540
L50880 29870
" />
<path d="M50880 29590
L50910 29560
L50950 29540
L51030 29540
L51070 29560
L51100 29610
L51100 29870
" />
<path d="M51260 29540
L51450 29540
" />
<path d="M51330 29370
L51330 29800
L51360 29850
L51410 29870
L51450 29870
" />
<path d="M51690 29870
L51640 29850
L51620 29820
L51600 29780
L51600 29630
L51620 29590
L51640 29560
L51690 29540
L51760 29540
L51810 29560
L51830 29590
L51860 29630
L51860 29780
L51830 29820
L51810 29850
L51760 29870
L51690 29870
" />
<path d="M52070 29870
L52070 29540
" />
<path d="M52070 29370
L52050 29400
L52070 29420
L52100 29400
L52070 29370
L52070 29420
" />
<path d="M52310 29540
L52310 29870
" />
<path d="M52310 29590
L52330 29560
L52380 29540
L52450 29540
L52500 29560
L52530 29610
L52530 29870
" />
<path d="M52690 29540
L52880 29540
" />
<path d="M52760 29370
L52760 29800
L52790 29850
L52830 29870
L52880 29870
" />
<path d="M53050 29870
L53050 29540
" />
<path d="M53050 29370
L53030 29400
L53050 29420
L53070 29400
L53050 29370
L53050 29420
" />
<path d="M53240 29540
L53360 29870
L53480 29540
" />
<path d="M53880 29870
L53880 29610
L53860 29560
L53810 29540
L53720 29540
L53670 29560
" />
<path d="M53880 29850
L53830 29870
L53720 29870
L53670 29850
L53640 29800
L53640 29750
L53670 29700
L53720 29680
L53830 29680
L53880 29660
" />
<path d="M54120 29870
L54120 29370
" />
<path d="M54330 29870
L54330 29610
L54310 29560
L54260 29540
L54190 29540
L54140 29560
L54120 29590
" />
<path d="M54530 29540
L54640 29870
L54760 29540
" />
<path d="M54950 29870
L54950 29540
" />
<path d="M54950 29370
L54930 29400
L54950 29420
L54980 29400
L54950 29370
L54950 29420
" />
<path d="M55170 29850
L55220 29870
L55310 29870
L55360 29850
L55380 29800
L55380 29780
L55360 29730
L55310 29700
L55240 29700
L55190 29680
L55170 29630
L55170 29610
L55190 29560
L55240 29540
L55310 29540
L55360 29560
" />
<path d="M55530 29540
L55720 29540
" />
<path d="M55600 29370
L55600 29800
L55620 29850
L55670 29870
L55720 29870
" />
<path d="M55880 29870
L55880 29540
" />
<path d="M55880 29370
L55860 29400
L55880 29420
L55910 29400
L55880 29370
L55880 29420
" />
<path d="M56120 29540
L56120 29870
" />
<path d="M56120 29590
L56140 29560
L56190 29540
L56260 29540
L56310 29560
L56330 29610
L56330 29870
" />
<text x="43000" y="8400"
textLength="26580" font-size="660" lengthAdjust="spacingAndGlyphs"
text-anchor="start" opacity="0">LM324N:n VCC ja GND pinnin vlill on 22uF suodatuskondensaattori</text>
<path d="M43380 8370
L43140 8370
L43140 7870
" />
<path d="M43550 8370
L43550 7870
L43720 8230
L43880 7870
L43880 8370
" />
<path d="M44070 7870
L44380 7870
L44220 8060
L44290 8060
L44330 8090
L44360 8110
L44380 8160
L44380 8280
L44360 8320
L44330 8350
L44290 8370
L44140 8370
L44100 8350
L44070 8320
" />
<path d="M44570 7920
L44600 7900
L44640 7870
L44760 7870
L44810 7900
L44830 7920
L44860 7970
L44860 8010
L44830 8090
L44550 8370
L44860 8370
" />
<path d="M45290 8040
L45290 8370
" />
<path d="M45170 7850
L45050 8200
L45360 8200
" />
<path d="M45550 8370
L45550 7870
L45830 8370
L45830 7870
" />
<path d="M46070 8320
L46100 8350
L46070 8370
L46050 8350
L46070 8320
L46070 8370
" />
<path d="M46070 8060
L46100 8090
L46070 8110
L46050 8090
L46070 8060
L46070 8110
" />
<path d="M46310 8040
L46310 8370
" />
<path d="M46310 8090
L46330 8060
L46380 8040
L46450 8040
L46500 8060
L46530 8110
L46530 8370
" />
<path d="M47070 7870
L47240 8370
L47410 7870
" />
<path d="M47860 8320
L47830 8350
L47760 8370
L47720 8370
L47640 8350
L47600 8300
L47570 8250
L47550 8160
L47550 8090
L47570 7990
L47600 7940
L47640 7900
L47720 7870
L47760 7870
L47830 7900
L47860 7920
" />
<path d="M48360 8320
L48330 8350
L48260 8370
L48220 8370
L48140 8350
L48100 8300
L48070 8250
L48050 8160
L48050 8090
L48070 7990
L48100 7940
L48140 7900
L48220 7870
L48260 7870
L48330 7900
L48360 7920
" />
<path d="M48950 8040
L48950 8470
L48930 8510
L48880 8540
L48860 8540
" />
<path d="M48950 7870
L48930 7900
L48950 7920
L48980 7900
L48950 7870
L48950 7920
" />
<path d="M49410 8370
L49410 8110
L49380 8060
L49330 8040
L49240 8040
L49190 8060
" />
<path d="M49410 8350
L49360 8370
L49240 8370
L49190 8350
L49170 8300
L49170 8250
L49190 8200
L49240 8180
L49360 8180
L49410 8160
" />
<path d="M50290 7900
L50240 7870
L50170 7870
L50100 7900
L50050 7940
L50030 7990
L50000 8090
L50000 8160
L50030 8250
L50050 8300
L50100 8350
L50170 8370
L50220 8370
L50290 8350
L50310 8320
L50310 8160
L50220 8160
" />
<path d="M50530 8370
L50530 7870
L50810 8370
L50810 7870
" />
<path d="M51050 8370
L51050 7870
L51170 7870
L51240 7900
L51290 7940
L51310 7990
L51330 8090
L51330 8160
L51310 8250
L51290 8300
L51240 8350
L51170 8370
L51050 8370
" />
<path d="M51930 8040
L51930 8540
" />
<path d="M51930 8060
L51980 8040
L52070 8040
L52120 8060
L52140 8090
L52170 8130
L52170 8280
L52140 8320
L52120 8350
L52070 8370
L51980 8370
L51930 8350
" />
<path d="M52380 8370
L52380 8040
" />
<path d="M52380 7870
L52360 7900
L52380 7920
L52410 7900
L52380 7870
L52380 7920
" />
<path d="M52620 8040
L52620 8370
" />
<path d="M52620 8090
L52640 8060
L52690 8040
L52760 8040
L52810 8060
L52830 8110
L52830 8370
" />
<path d="M53070 8040
L53070 8370
" />
<path d="M53070 8090
L53100 8060
L53140 8040
L53220 8040
L53260 8060
L53290 8110
L53290 8370
" />
<path d="M53530 8370
L53530 8040
" />
<path d="M53530 7870
L53500 7900
L53530 7920
L53550 7900
L53530 7870
L53530 7920
" />
<path d="M53760 8040
L53760 8370
" />
<path d="M53760 8090
L53790 8060
L53830 8040
L53910 8040
L53950 8060
L53980 8110
L53980 8370
" />
<path d="M54550 8040
L54670 8370
L54790 8040
" />
<path d="M55190 8370
L55190 8110
L55170 8060
L55120 8040
L55030 8040
L54980 8060
" />
<path d="M55190 8350
L55140 8370
L55030 8370
L54980 8350
L54950 8300
L54950 8250
L54980 8200
L55030 8180
L55140 8180
L55190 8160
" />
<path d="M54980 7870
L55000 7900
L54980 7920
L54950 7900
L54980 7870
L54980 7920
" />
<path d="M55170 7870
L55190 7900
L55170 7920
L55140 7900
L55170 7870
L55170 7920
" />
<path d="M55500 8370
L55450 8350
L55430 8300
L55430 7870
" />
<path d="M55690 8370
L55690 8040
" />
<path d="M55690 7870
L55670 7900
L55690 7920
L55720 7900
L55690 7870
L55690 7920
" />
<path d="M56000 8370
L55950 8350
L55930 8300
L55930 7870
" />
<path d="M56260 8370
L56220 8350
L56190 8300
L56190 7870
" />
<path d="M56670 8370
L56670 8110
L56640 8060
L56600 8040
L56500 8040
L56450 8060
" />
<path d="M56670 8350
L56620 8370
L56500 8370
L56450 8350
L56430 8300
L56430 8250
L56450 8200
L56500 8180
L56620 8180
L56670 8160
" />
<path d="M56450 7870
L56480 7900
L56450 7920
L56430 7900
L56450 7870
L56450 7920
" />
<path d="M56640 7870
L56670 7900
L56640 7920
L56620 7900
L56640 7870
L56640 7920
" />
<path d="M57360 8370
L57310 8350
L57290 8320
L57260 8280
L57260 8130
L57290 8090
L57310 8060
L57360 8040
L57430 8040
L57480 8060
L57500 8090
L57530 8130
L57530 8280
L57500 8320
L57480 8350
L57430 8370
L57360 8370
" />
<path d="M57740 8040
L57740 8370
" />
<path d="M57740 8090
L57760 8060
L57810 8040
L57880 8040
L57930 8060
L57950 8110
L57950 8370
" />
<path d="M58550 7920
L58570 7900
L58620 7870
L58740 7870
L58790 7900
L58810 7920
L58830 7970
L58830 8010
L58810 8090
L58520 8370
L58830 8370
" />
<path d="M59030 7920
L59050 7900
L59100 7870
L59220 7870
L59260 7900
L59290 7920
L59310 7970
L59310 8010
L59290 8090
L59000 8370
L59310 8370
" />
<path d="M59740 8040
L59740 8370
" />
<path d="M59530 8040
L59530 8300
L59550 8350
L59600 8370
L59670 8370
L59720 8350
L59740 8320
" />
<path d="M60140 8110
L59980 8110
" />
<path d="M59980 8370
L59980 7870
L60220 7870
" />
<path d="M60760 8350
L60810 8370
L60910 8370
L60950 8350
L60980 8300
L60980 8280
L60950 8230
L60910 8200
L60830 8200
L60790 8180
L60760 8130
L60760 8110
L60790 8060
L60830 8040
L60910 8040
L60950 8060
" />
<path d="M61410 8040
L61410 8370
" />
<path d="M61190 8040
L61190 8300
L61220 8350
L61260 8370
L61330 8370
L61380 8350
L61410 8320
" />
<path d="M61720 8370
L61670 8350
L61640 8320
L61620 8280
L61620 8130
L61640 8090
L61670 8060
L61720 8040
L61790 8040
L61830 8060
L61860 8090
L61880 8130
L61880 8280
L61860 8320
L61830 8350
L61790 8370
L61720 8370
" />
<path d="M62310 8370
L62310 7870
" />
<path d="M62310 8350
L62260 8370
L62170 8370
L62120 8350
L62100 8320
L62070 8280
L62070 8130
L62100 8090
L62120 8060
L62170 8040
L62260 8040
L62310 8060
" />
<path d="M62760 8370
L62760 8110
L62740 8060
L62690 8040
L62600 8040
L62550 8060
" />
<path d="M62760 8350
L62720 8370
L62600 8370
L62550 8350
L62520 8300
L62520 8250
L62550 8200
L62600 8180
L62720 8180
L62760 8160
" />
<path d="M62930 8040
L63120 8040
" />
<path d="M63000 7870
L63000 8300
L63020 8350
L63070 8370
L63120 8370
" />
<path d="M63500 8040
L63500 8370
" />
<path d="M63290 8040
L63290 8300
L63310 8350
L63360 8370
L63430 8370
L63480 8350
L63500 8320
" />
<path d="M63720 8350
L63760 8370
L63860 8370
L63910 8350
L63930 8300
L63930 8280
L63910 8230
L63860 8200
L63790 8200
L63740 8180
L63720 8130
L63720 8110
L63740 8060
L63790 8040
L63860 8040
L63910 8060
" />
<path d="M64140 8370
L64140 7870
" />
<path d="M64190 8180
L64330 8370
" />
<path d="M64330 8040
L64140 8230
" />
<path d="M64620 8370
L64570 8350
L64550 8320
L64520 8280
L64520 8130
L64550 8090
L64570 8060
L64620 8040
L64690 8040
L64740 8060
L64760 8090
L64790 8130
L64790 8280
L64760 8320
L64740 8350
L64690 8370
L64620 8370
" />
<path d="M65000 8040
L65000 8370
" />
<path d="M65000 8090
L65020 8060
L65070 8040
L65140 8040
L65190 8060
L65220 8110
L65220 8370
" />
<path d="M65670 8370
L65670 7870
" />
<path d="M65670 8350
L65620 8370
L65530 8370
L65480 8350
L65450 8320
L65430 8280
L65430 8130
L65450 8090
L65480 8060
L65530 8040
L65620 8040
L65670 8060
" />
<path d="M66100 8350
L66050 8370
L65950 8370
L65910 8350
L65880 8300
L65880 8110
L65910 8060
L65950 8040
L66050 8040
L66100 8060
L66120 8110
L66120 8160
L65880 8200
" />
<path d="M66330 8040
L66330 8370
" />
<path d="M66330 8090
L66360 8060
L66410 8040
L66480 8040
L66520 8060
L66550 8110
L66550 8370
" />
<path d="M66760 8350
L66810 8370
L66910 8370
L66950 8350
L66980 8300
L66980 8280
L66950 8230
L66910 8200
L66830 8200
L66790 8180
L66760 8130
L66760 8110
L66790 8060
L66830 8040
L66910 8040
L66950 8060
" />
<path d="M67410 8370
L67410 8110
L67380 8060
L67330 8040
L67240 8040
L67190 8060
" />
<path d="M67410 8350
L67360 8370
L67240 8370
L67190 8350
L67170 8300
L67170 8250
L67190 8200
L67240 8180
L67360 8180
L67410 8160
" />
<path d="M67860 8370
L67860 8110
L67830 8060
L67790 8040
L67690 8040
L67640 8060
" />
<path d="M67860 8350
L67810 8370
L67690 8370
L67640 8350
L67620 8300
L67620 8250
L67640 8200
L67690 8180
L67810 8180
L67860 8160
" />
<path d="M68030 8040
L68220 8040
" />
<path d="M68100 7870
L68100 8300
L68120 8350
L68170 8370
L68220 8370
" />
<path d="M68310 8040
L68500 8040
" />
<path d="M68380 7870
L68380 8300
L68410 8350
L68450 8370
L68500 8370
" />
<path d="M68740 8370
L68690 8350
L68670 8320
L68640 8280
L68640 8130
L68670 8090
L68690 8060
L68740 8040
L68810 8040
L68860 8060
L68880 8090
L68910 8130
L68910 8280
L68880 8320
L68860 8350
L68810 8370
L68740 8370
" />
<path d="M69120 8370
L69120 8040
" />
<path d="M69120 8130
L69140 8090
L69170 8060
L69220 8040
L69260 8040
" />
<path d="M69430 8370
L69430 8040
" />
<path d="M69430 7870
L69410 7900
L69430 7920
L69450 7900
L69430 7870
L69430 7920
" />
<text x="64500" y="26400"
textLength="10580" font-size="660" lengthAdjust="spacingAndGlyphs"
text-anchor="start" opacity="0">Sallen-Key Alipstsuodin</text>
<path d="M64620 26350
L64690 26370
L64810 26370
L64860 26350
L64880 26320
L64910 26280
L64910 26230
L64880 26180
L64860 26160
L64810 26130
L64720 26110
L64670 26090
L64640 26060
L64620 26010
L64620 25970
L64640 25920
L64670 25900
L64720 25870
L64830 25870
L64910 25900
" />
<path d="M65330 26370
L65330 26110
L65310 26060
L65260 26040
L65170 26040
L65120 26060
" />
<path d="M65330 26350
L65290 26370
L65170 26370
L65120 26350
L65100 26300
L65100 26250
L65120 26200
L65170 26180
L65290 26180
L65330 26160
" />
<path d="M65640 26370
L65600 26350
L65570 26300
L65570 25870
" />
<path d="M65910 26370
L65860 26350
L65830 26300
L65830 25870
" />
<path d="M66290 26350
L66240 26370
L66140 26370
L66100 26350
L66070 26300
L66070 26110
L66100 26060
L66140 26040
L66240 26040
L66290 26060
L66310 26110
L66310 26160
L66070 26200
" />
<path d="M66530 26040
L66530 26370
" />
<path d="M66530 26090
L66550 26060
L66600 26040
L66670 26040
L66720 26060
L66740 26110
L66740 26370
" />
<path d="M66980 26180
L67360 26180
" />
<path d="M67600 26370
L67600 25870
" />
<path d="M67880 26370
L67670 26090
" />
<path d="M67880 25870
L67600 26160
" />
<path d="M68290 26350
L68240 26370
L68140 26370
L68100 26350
L68070 26300
L68070 26110
L68100 26060
L68140 26040
L68240 26040
L68290 26060
L68310 26110
L68310 26160
L68070 26200
" />
<path d="M68480 26040
L68600 26370
" />
<path d="M68720 26040
L68600 26370
L68550 26490
L68530 26510
L68480 26540
" />
<path d="M69260 26230
L69500 26230
" />
<path d="M69220 26370
L69380 25870
L69550 26370
" />
<path d="M69790 26370
L69740 26350
L69720 26300
L69720 25870
" />
<path d="M69980 26370
L69980 26040
" />
<path d="M69980 25870
L69950 25900
L69980 25920
L70000 25900
L69980 25870
L69980 25920
" />
<path d="M70220 26040
L70220 26540
" />
<path d="M70220 26060
L70260 26040
L70360 26040
L70410 26060
L70430 26090
L70450 26130
L70450 26280
L70430 26320
L70410 26350
L70360 26370
L70260 26370
L70220 26350
" />
<path d="M70880 26370
L70880 26110
L70860 26060
L70810 26040
L70720 26040
L70670 26060
" />
<path d="M70880 26350
L70830 26370
L70720 26370
L70670 26350
L70640 26300
L70640 26250
L70670 26200
L70720 26180
L70830 26180
L70880 26160
" />
<path d="M70670 25870
L70690 25900
L70670 25920
L70640 25900
L70670 25870
L70670 25920
" />
<path d="M70860 25870
L70880 25900
L70860 25920
L70830 25900
L70860 25870
L70860 25920
" />
<path d="M71330 26370
L71330 26110
L71310 26060
L71260 26040
L71170 26040
L71120 26060
" />
<path d="M71330 26350
L71290 26370
L71170 26370
L71120 26350
L71100 26300
L71100 26250
L71120 26200
L71170 26180
L71290 26180
L71330 26160
" />
<path d="M71120 25870
L71140 25900
L71120 25920
L71100 25900
L71120 25870
L71120 25920
" />
<path d="M71310 25870
L71330 25900
L71310 25920
L71290 25900
L71310 25870
L71310 25920
" />
<path d="M71550 26350
L71600 26370
L71690 26370
L71740 26350
L71760 26300
L71760 26280
L71740 26230
L71690 26200
L71620 26200
L71570 26180
L71550 26130
L71550 26110
L71570 26060
L71620 26040
L71690 26040
L71740 26060
" />
<path d="M71910 26040
L72100 26040
" />
<path d="M71980 25870
L71980 26300
L72000 26350
L72050 26370
L72100 26370
" />
<path d="M72330 26370
L72290 26350
L72260 26320
L72240 26280
L72240 26130
L72260 26090
L72290 26060
L72330 26040
L72410 26040
L72450 26060
L72480 26090
L72500 26130
L72500 26280
L72480 26320
L72450 26350
L72410 26370
L72330 26370
" />
<path d="M72290 25870
L72310 25900
L72290 25920
L72260 25900
L72290 25870
L72290 25920
" />
<path d="M72480 25870
L72500 25900
L72480 25920
L72450 25900
L72480 25870
L72480 25920
" />
<path d="M72690 26350
L72740 26370
L72830 26370
L72880 26350
L72910 26300
L72910 26280
L72880 26230
L72830 26200
L72760 26200
L72720 26180
L72690 26130
L72690 26110
L72720 26060
L72760 26040
L72830 26040
L72880 26060
" />
<path d="M73330 26040
L73330 26370
" />
<path d="M73120 26040
L73120 26300
L73140 26350
L73190 26370
L73260 26370
L73310 26350
L73330 26320
" />
<path d="M73640 26370
L73600 26350
L73570 26320
L73550 26280
L73550 26130
L73570 26090
L73600 26060
L73640 26040
L73720 26040
L73760 26060
L73790 26090
L73810 26130
L73810 26280
L73790 26320
L73760 26350
L73720 26370
L73640 26370
" />
<path d="M74240 26370
L74240 25870
" />
<path d="M74240 26350
L74190 26370
L74100 26370
L74050 26350
L74030 26320
L74000 26280
L74000 26130
L74030 26090
L74050 26060
L74100 26040
L74190 26040
L74240 26060
" />
<path d="M74480 26370
L74480 26040
" />
<path d="M74480 25870
L74450 25900
L74480 25920
L74500 25900
L74480 25870
L74480 25920
" />
<path d="M74720 26040
L74720 26370
" />
<path d="M74720 26090
L74740 26060
L74790 26040
L74860 26040
L74910 26060
L74930 26110
L74930 26370
" />
</g>
<g style="fill:#0000C2; fill-opacity:0.0; 
stroke:#0000C2; stroke-width:0; stroke-opacity:1; 
stroke-linecap:round; stroke-linejoin:round;">
</g>
<g style="fill:#008400; fill-opacity:0.0; 
stroke:#008400; stroke-width:0; stroke-opacity:1; 
stroke-linecap:round; stroke-linejoin:round;">
</g>
<g style="fill:#008400; fill-opacity:1.0; 
stroke:#008400; stroke-width:100; stroke-opacity:1; 
stroke-linecap:round; stroke-linejoin:round;">
<circle cx="54500" cy="16000" r="200" /> 
</g>
<g style="fill:#008400; fill-opacity:1.0; 
stroke:#008400; stroke-width:0; stroke-opacity:1; 
stroke-linecap:round; stroke-linejoin:round;">
</g>
<g style="fill:#008400; fill-opacity:1.0; 
stroke:#008400; stroke-width:100; stroke-opacity:1; 
stroke-linecap:round; stroke-linejoin:round;">
<circle cx="50500" cy="15000" r="200" /> 
</g>
<g style="fill:#008400; fill-opacity:1.0; 
stroke:#008400; stroke-width:0; stroke-opacity:1; 
stroke-linecap:round; stroke-linejoin:round;">
</g>
<g style="fill:#008400; fill-opacity:1.0; 
stroke:#008400; stroke-width:100; stroke-opacity:1; 
stroke-linecap:round; stroke-linejoin:round;">
<circle cx="50500" cy="23000" r="200" /> 
</g>
<g style="fill:#008400; fill-opacity:1.0; 
stroke:#008400; stroke-width:0; stroke-opacity:1; 
stroke-linecap:round; stroke-linejoin:round;">
</g>
<g style="fill:#008400; fill-opacity:1.0; 
stroke:#008400; stroke-width:100; stroke-opacity:1; 
stroke-linecap:round; stroke-linejoin:round;">
<circle cx="54500" cy="22000" r="200" /> 
</g>
<g style="fill:#008400; fill-opacity:1.0; 
stroke:#008400; stroke-width:0; stroke-opacity:1; 
stroke-linecap:round; stroke-linejoin:round;">
</g>
<g style="fill:#008400; fill-opacity:1.0; 
stroke:#008400; stroke-width:100; stroke-opacity:1; 
stroke-linecap:round; stroke-linejoin:round;">
<circle cx="61500" cy="19000" r="200" /> 
</g>
<g style="fill:#008400; fill-opacity:1.0; 
stroke:#008400; stroke-width:0; stroke-opacity:1; 
stroke-linecap:round; stroke-linejoin:round;">
</g>
<g style="fill:#008400; fill-opacity:1.0; 
stroke:#008400; stroke-width:100; stroke-opacity:1; 
stroke-linecap:round; stroke-linejoin:round;">
<circle cx="41500" cy="16000" r="200" /> 
</g>
<g style="fill:#008400; fill-opacity:1.0; 
stroke:#008400; stroke-width:0; stroke-opacity:1; 
stroke-linecap:round; stroke-linejoin:round;">
</g>
<g style="fill:#008400; fill-opacity:1.0; 
stroke:#008400; stroke-width:100; stroke-opacity:1; 
stroke-linecap:round; stroke-linejoin:round;">
<circle cx="41500" cy="22000" r="200" /> 
</g>
<g style="fill:#008400; fill-opacity:1.0; 
stroke:#008400; stroke-width:0; stroke-opacity:1; 
stroke-linecap:round; stroke-linejoin:round;">
</g>
<g style="fill:#008400; fill-opacity:1.0; 
stroke:#008400; stroke-width:100; stroke-opacity:1; 
stroke-linecap:round; stroke-linejoin:round;">
<circle cx="76500" cy="18000" r="200" /> 
</g>
<g style="fill:#008400; fill-opacity:1.0; 
stroke:#008400; stroke-width:0; stroke-opacity:1; 
stroke-linecap:round; stroke-linejoin:round;">
</g>
<g style="fill:#008400; fill-opacity:1.0; 
stroke:#008400; stroke-width:100; stroke-opacity:1; 
stroke-linecap:round; stroke-linejoin:round;">
<circle cx="50500" cy="16000" r="200" /> 
</g>
<g style="fill:#008400; fill-opacity:1.0; 
stroke:#008400; stroke-width:0; stroke-opacity:1; 
stroke-linecap:round; stroke-linejoin:round;">
</g>
<g style="fill:#008400; fill-opacity:1.0; 
stroke:#008400; stroke-width:100; stroke-opacity:1; 
stroke-linecap:round; stroke-linejoin:round;">
<circle cx="69500" cy="19000" r="200" /> 
</g>
<g style="fill:#008400; fill-opacity:1.0; 
stroke:#008400; stroke-width:0; stroke-opacity:1; 
stroke-linecap:round; stroke-linejoin:round;">
</g>
<g style="fill:#008400; fill-opacity:1.0; 
stroke:#008400; stroke-width:100; stroke-opacity:1; 
stroke-linecap:round; stroke-linejoin:round;">
<circle cx="50500" cy="22000" r="200" /> 
</g>
<g style="fill:#008400; fill-opacity:1.0; 
stroke:#008400; stroke-width:0; stroke-opacity:1; 
stroke-linecap:round; stroke-linejoin:round;">
</g>
<g style="fill:#008400; fill-opacity:1.0; 
stroke:#008400; stroke-width:100; stroke-opacity:1; 
stroke-linecap:round; stroke-linejoin:round;">
<circle cx="37500" cy="16000" r="200" /> 
</g>
<g style="fill:#008400; fill-opacity:1.0; 
stroke:#008400; stroke-width:0; stroke-opacity:1; 
stroke-linecap:round; stroke-linejoin:round;">
</g>
<g style="fill:#008400; fill-opacity:1.0; 
stroke:#008400; stroke-width:100; stroke-opacity:1; 
stroke-linecap:round; stroke-linejoin:round;">
<circle cx="65500" cy="19000" r="200" /> 
</g>
<g style="fill:#008400; fill-opacity:1.0; 
stroke:#008400; stroke-width:0; stroke-opacity:1; 
stroke-linecap:round; stroke-linejoin:round;">
</g>
<g style="fill:#008400; fill-opacity:1.0; 
stroke:#008400; stroke-width:100; stroke-opacity:1; 
stroke-linecap:round; stroke-linejoin:round;">
<circle cx="69500" cy="15500" r="200" /> 
</g> 
</svg>
